<svg width="143" height="143" viewBox="0 0 143 143" fill="none" xmlns="http://www.w3.org/2000/svg">
<g clip-path="url(#clip0_30_2775)">
<path d="M142.04 71.5067C142.04 110.93 110.242 142.889 71.0237 142.889C31.7984 142.889 0.000244141 110.93 0.000244141 71.5067C0.000244141 32.0835 31.7984 0.124023 71.0163 0.124023C110.242 0.124023 142.04 32.0835 142.04 71.5067Z" fill="white"/>
<path d="M70.6128 24.9637C73.1423 26.4227 75.8258 28.2997 77.864 30.2866L77.0648 31.0931C73.0323 30.6679 68.7872 31.1958 64.9673 31.2617C64.5421 30.8292 63.6843 30.184 64.4834 29.6414L70.6128 24.9637ZM141.878 75.0254C141.93 76.8437 142.105 78.4054 141.394 80.2677C134.033 82.3646 129.194 74.5635 122.053 75.7439L122.859 79.7838C129.465 80.0037 133.601 86.3384 140.427 86.0672C139.459 88.0028 140.859 93.113 136.563 91.0675C132.105 89.997 128.879 86.0672 123.989 86.0672C123.402 87.1523 123.769 88.648 123.666 89.931C128.828 90.7375 132.53 95.1 137.692 95.9065C137.208 97.6808 136.724 99.6604 135.272 100.745C131.078 99.7264 127.801 95.9578 123.336 96.0678L122.537 99.7777C126.782 99.8877 129.524 103.642 133.337 104.771C133.439 106.332 132.039 107.733 131.24 109.133C127.852 108.114 125.272 105.211 121.4 105.423C121.349 103.964 122.214 102.307 121.884 100.753C117.537 102.043 114.626 98.0107 111.407 95.5839C111.312 87.6582 102.968 82.4599 102.528 75.0328C102.44 73.5517 102.668 71.9754 103.342 70.2744C106.084 63.9324 105.219 55.6987 102.213 49.7893C101.297 48.2349 99.6835 47.0032 98.1732 46.094C100.38 50.7717 103.071 56.2999 101.729 62.0481C101.575 66.4912 98.9577 70.751 98.921 75.0328C98.9137 76.5578 99.2363 78.0828 100.116 79.6225C103.613 85.9205 109.897 91.874 107.536 99.7703C106.883 102.197 104.948 104.074 104.464 106.538C108.555 109.925 112.419 113.745 117.844 113.957C119.78 112.726 118.702 107.249 122.683 109.771L128.49 112.674C128.065 114.229 126.767 115.622 125.587 116.692C123.38 115.622 121.232 114.331 118.49 114.441C117.676 115.299 116.979 116.267 117.045 117.499C118.981 117.814 120.755 118.635 122.368 119.764C121.62 121.377 120.154 122.389 118.812 123.628L114.311 122.015C113.555 123.093 111.994 124.222 112.544 125.402C113.555 125.842 114.684 126.429 115.432 127.184C113.445 129.332 110.923 130.718 108.496 132.177C106.407 125.351 99.5222 120.563 100.116 112.667L99.7935 112.344C98.1732 114.163 98.7157 117.073 98.8184 119.434C100.754 124.376 105.373 128.203 106.077 133.621C105.27 135.014 103.445 135.293 102.044 135.887C102.206 126.106 87.3734 118.694 96.8828 108.803C100.057 103.957 105.373 99.3378 103.489 92.6731C101.553 86.2358 94.7199 82.2473 94.7785 75.0328L94.7932 74.4682C96.3475 66.9458 101.084 58.9321 97.2127 50.9257C96.1349 47.707 93.7228 44.0485 90.4454 42.6994C95.3358 48.2936 97.2714 57.4217 94.4779 64.9515C93.0702 67.9429 91.1273 71.5135 90.9367 75.0328H90.922C90.8194 76.873 91.1933 78.6987 92.381 80.429C96.0909 86.4484 102.536 93.0617 98.8257 100.914C94.6319 107.197 87.3294 113.591 91.4059 121.868C94.3606 126.81 98.9357 131.744 97.6966 137.823L92.8576 139.436C96.0836 128.101 80.2835 121.436 86.8968 110.101C90.9807 104.03 98.2832 98.3333 94.148 90.2756C91.6772 85.2827 86.5669 82.3279 86.7282 76.0885L86.9042 75.0401C88.5685 66.1906 95.2991 57.8103 90.5921 48.3522C89.353 45.5588 86.8822 42.7141 84.1401 41.1011L83.9788 41.2697C89.463 46.5926 91.1273 55.3468 88.1726 62.378C86.7942 66.5058 83.7661 70.619 83.1503 75.0401C82.857 77.1223 83.1063 79.2852 84.3087 81.5654C87.7986 87.0936 93.9281 92.9591 90.1008 100.115C86.0757 106.017 79.3597 111.765 82.0432 119.449C84.9979 126.172 91.1713 132.573 87.8426 140.902L82.8497 142.031C86.8235 133.907 80.8627 125.857 77.3728 118.811C73.1277 108.708 86.5009 103.869 86.7135 94.6307C86.6622 88.67 80.3275 85.2827 78.9858 79.8058C76.2437 77.4889 73.3989 80.7296 70.1216 80.1284C67.7021 80.6123 63.9775 76.7924 62.5332 80.9349C60.8102 87.0056 52.9725 91.4634 56.4184 98.6632C59.6957 105.057 67.5921 109.742 64.9527 118.019C62.5918 125.754 54.7981 133.116 59.6298 142.031C57.6428 141.386 53.9329 142.618 53.9843 139.443C50.9195 128.643 63.9775 122.352 59.945 111.553C58.0681 104.939 49.5192 101.288 51.4035 93.333C52.7965 86.7857 60.143 82.2106 59.1092 75.0401C59.0286 74.4389 58.8746 73.823 58.6693 73.1851C55.9272 65.4501 50.333 57.7077 53.669 48.6748C54.5855 46.094 56.4111 43.8945 58.0168 41.585C52.7158 44.4224 50.0324 50.4418 50.1424 56.5639C49.9078 63.2212 54.8274 68.9327 55.5313 75.0254C55.8099 77.4889 55.4066 80.0037 53.6836 82.6799C50.1937 87.4162 45.626 92.4092 47.7229 98.6486C49.7098 104.939 57.5549 108.752 57.0709 116.062C57.0196 124.706 46.9677 130.095 49.8198 139.765L44.8195 138.145C42.8325 129.552 51.968 125.153 52.0706 117.198C53.361 108.055 41.6961 104.661 42.4 95.7452C42.3486 88.9706 48.3094 84.6814 50.9415 78.9846C51.3961 77.5989 51.5428 76.2865 51.4841 75.0328C51.1615 68.7347 45.4867 63.8077 46.4251 56.7252C46.7404 51.5123 48.5147 46.9445 51.902 43.022C47.2316 44.8989 45.296 50.2805 44.0056 54.7896C41.7621 62.0261 47.1143 68.5368 47.6496 75.0254C47.8842 77.8922 47.1876 80.7369 44.4895 83.6477C40.6183 88.2081 36.6885 93.9635 39.4892 100.1C42.4513 106.868 51.748 112.132 47.7155 120.571C45.516 125.894 40.2444 129.919 40.4644 136.21C39.0713 135.616 37.6196 135.029 36.4319 133.959C36.4319 125.952 47.8182 120.952 42.3926 112.513C41.9087 114.177 41.8061 116.443 41.4322 118.32C39.5479 123.21 35.5227 127.125 34.0124 132.184C31.4902 131.209 28.8581 129.164 26.7612 127.015L29.6646 125.241C29.342 124.163 28.4842 123.254 27.729 122.338C25.8447 122.074 24.6056 123.313 23.0513 123.797C21.7095 122.609 20.4118 121.539 19.3414 120.087C20.3092 117.337 27.839 119.61 24.0264 115.094C21.4529 113.481 18.8648 115.783 16.6066 116.861L13.5492 112.997C16.1813 111.384 18.8061 109.126 22.0835 109.771C22.89 111.223 22.9486 113.364 24.503 114.119C30.0385 114.009 33.961 109.822 38.2062 106.545C35.2514 102.146 32.8393 96.0678 35.4714 90.7449C37.5756 85.4073 43.0598 80.9202 43.3091 75.0254C43.3678 73.6837 43.1551 72.2687 42.5686 70.751C39.6652 63.2798 38.6461 53.1839 44.1816 46.5706C41.1682 47.3771 39.3939 51.131 38.3748 53.9831C35.0461 61.2783 39.2546 68.0382 39.4012 75.0254C39.4232 76.2865 39.3206 77.5402 39.0127 78.816C36.1606 84.5641 31.5489 89.6084 30.7937 96.2291C27.5164 98.3186 24.8256 101.977 20.1479 100.745C19.9866 101.977 20.3605 103.862 20.7857 105.262C17.0832 105.108 14.5537 107.835 11.4377 109.126C9.77333 108.591 9.34075 106.442 8.70288 104.939C12.3541 103.708 14.9863 100.049 19.1801 100.1C19.664 98.7512 18.9088 97.5121 18.6962 96.2217C13.4832 93.9049 5.21293 107.667 4.51641 95.7378C9.72934 95.4152 13.058 90.5762 18.2196 90.0923L18.3736 86.2285C12.5154 85.6346 8.74687 91.6613 2.89607 91.0675L1.60567 85.9132C8.38028 86.3384 12.4128 80.2677 18.8648 79.9378C19.7226 78.8087 19.8253 77.1443 19.9939 75.59C12.9553 74.6735 8.12367 82.4746 0.652533 80.1064C0.652533 80.1064 0.395919 76.8584 0.256614 75.0254H0.263946C0.212623 74.3069 0.1613 73.8083 0.1613 73.8083C6.82593 76.3965 12.6767 71.6088 18.3809 69.138C19.8326 68.7054 22.0908 69.4532 22.7433 67.8476C22.6847 66.6085 24.9429 65.1641 23.0659 64.3063C14.7296 63.1772 9.19411 73.2291 0.652533 68.6541L0 67.3637C1.78163 43.0733 15.4775 19.5968 38.2062 8.04185C47.4076 2.7776 58.8453 0.0941463 70.3782 -0.00116746C84.294 -0.118477 98.3638 3.53277 108.826 10.9379C118.988 17.17 128.703 27.4419 133.982 37.8677C139.026 47.0032 141.35 57.2531 142.04 68.1628C133.227 74.8201 127.31 61.8868 118.336 64.7829C118.82 66.1832 119.091 67.6276 120.11 68.8154C128.065 68.7567 133.542 77.093 141.871 73.8083L141.878 75.0254ZM40.6183 45.1116C35.0315 41.453 27.9416 44.8989 22.736 46.8859C22.2521 41.9955 20.2652 37.5378 16.1227 34.3118C15.7194 34.1138 15.1622 33.6886 14.6637 33.6593C14.3631 33.6373 14.0771 33.7619 13.8572 34.1432C15.7341 45.6981 8.22631 53.7558 2.9034 62.5173C4.67771 63.969 7.52246 63.7491 9.67068 63.3238C15.3089 61.0656 20.6831 57.1431 27.4064 58.4848C29.3933 55.0975 32.7293 51.8202 35.4641 49.1367C37.1357 47.6997 39.4306 46.7759 40.6183 45.1116ZM57.7088 52.3701C57.5988 53.0666 57.7601 54.3057 58.8379 53.8291C60.5096 51.5196 63.457 53.3452 65.2899 53.5065V52.854C64.2855 51.2776 62.2252 50.4931 60.1357 50.5665C59.6518 50.5811 59.1605 50.6544 58.6913 50.7644C57.9801 50.9257 57.4962 51.5636 57.7088 52.3701ZM83.9934 45.4488C82.4904 42.1129 79.0518 40.7711 75.9284 39.9646C74.3961 39.774 72.8124 39.6494 71.236 39.6347C70.9428 39.6347 70.6495 39.6274 70.3489 39.6347C65.9425 39.7227 61.734 40.8518 59.1605 44.481C58.7939 45.5075 57.1663 46.9445 58.6766 47.861C62.0639 47.6411 65.9278 47.2158 68.186 50.1265C68.186 52.7073 69.8503 56.146 67.0569 57.3777C64.74 55.2368 61.9979 58.2869 59.4831 56.5712C58.2954 55.8747 57.5475 56.6885 57.0636 57.7077C56.3598 64.3723 59.8497 71.7188 66.0818 75.4287C68.6039 76.3378 72.0059 77.203 74.638 75.9126C80.98 72.9579 83.6048 66.1906 84.7853 59.9585C84.624 58.7708 84.6826 56.4612 83.0183 56.4026C81.1413 57.5903 78.3992 56.8865 76.405 56.4026C75.2246 56.7838 75.1732 58.5068 73.8315 58.8294L73.0177 58.1769C72.3212 55.2295 71.8886 51.0357 74.6307 48.9901C77.6954 47.751 81.2953 47.2158 84.47 48.1836C85.0712 47.1645 84.1547 46.358 83.9934 45.4488ZM80.7528 50.7424C80.5401 50.7497 80.3348 50.7571 80.1222 50.7644C78.9931 51.5123 75.7158 50.977 76.8962 53.5065C78.9418 51.8862 81.7865 53.0226 83.8321 53.8291C84.5873 53.4552 84.426 52.7 84.4773 52.0548C83.8175 50.8304 82.2558 50.7131 80.7528 50.7424ZM104.156 28.0211C100.175 27.8085 96.8461 30.0667 93.1949 31.0931C92.8796 27.9844 95.2405 24.6998 95.7757 21.5764C89.8662 21.9577 85.1885 25.5136 80.2982 28.3583C79.1691 25.6236 78.0327 22.8741 76.9109 20.132L83.3556 14.0026L83.5242 13.1961L74.814 12.7122C73.311 10.0801 72.7244 6.92008 70.9501 4.50057C69.4984 7.24268 68.5233 10.1388 67.0716 12.8809L58.3687 13.3648V14.0026L64.9747 19.9634C64.1682 23.0281 63.4203 26.3568 61.4334 28.6736C57.5622 26.3568 53.7496 23.8346 49.5118 22.2289C48.4927 21.899 47.0337 21.3638 46.1245 22.0603C47.4663 25.015 49.3432 28.197 49.0279 31.423C47.2536 31.0931 45.8606 29.9567 44.1889 29.4801C42.1947 28.9376 39.8265 27.8744 37.8982 28.5196C41.1242 33.0287 43.7564 37.7504 44.6655 43.1833C55.3626 38.0217 67.8414 35.1769 80.7894 37.3838C86.8602 38.3516 92.4397 40.8224 97.8726 42.8607C98.0779 37.1712 101.678 32.5961 104.156 28.0211ZM122.522 58.9834C127.999 60.4351 133.491 66.4032 139.297 62.532C134.246 54.1517 126.731 46.4093 128.82 35.4482C129.04 34.7004 128.556 33.9452 127.86 33.8352C124.582 35.1769 122.046 38.4029 120.748 41.5776C120.213 43.4546 119.897 45.4488 119.15 47.2158C115.227 45.1702 111.033 43.1906 106.253 43.6745C104.53 43.8872 102.059 44.0045 101.736 45.7714C107.162 48.6748 111.627 53.5138 114.956 58.6681C117.265 58.2869 120.103 58.6095 122.522 58.9834ZM65.1286 66.5572L65.2826 67.5323C67.3795 68.9327 68.0247 71.3009 70.9354 71.0882C73.5162 71.2422 75.4445 68.8227 76.7349 66.8944C73.245 66.4032 68.9998 67.151 65.1286 66.5572ZM68.032 62.2094C68.1347 62.642 67.7681 63.2872 68.3546 63.4998C70.0776 63.1259 73.1863 64.4163 74.1468 62.3707C73.4796 61.6228 72.3798 61.2783 71.236 61.2783C70.085 61.2783 68.8972 61.6155 68.032 62.2094Z" fill="#4AA366"/>
<path opacity="0.99" d="M65.136 60.3403H76.9182V65.1793H65.136V60.3403Z" fill="white"/>
<path d="M67.3138 62.9287C68.8388 63.288 69.2128 63.8305 70.4152 63.9772C71.6909 63.9552 71.5076 63.6912 73.7438 62.9214C73.8905 62.8701 74.0884 62.5475 73.8391 62.2982C72.4534 60.9198 71.493 61.9023 70.6278 61.9316C69.4767 61.9463 68.3916 60.9491 67.2698 62.2469C67.0792 62.5181 66.9766 62.7747 67.3138 62.9287Z" fill="#4AA366"/>
</g>
<defs>
<clipPath id="clip0_30_2775">
<rect width="142.04" height="142.89" fill="white"/>
</clipPath>
</defs>
</svg>
