<svg width="1010" height="1080" viewBox="0 0 1010 1080" fill="none" xmlns="http://www.w3.org/2000/svg">
<path opacity="0.2" d="M292.085 123.943C317.115 138.476 343.665 157.18 363.877 177.001L355.937 185.038C316.054 180.766 274.049 186.097 236.24 186.685C232.024 182.399 223.529 175.956 231.441 170.572L292.085 123.943ZM997.294 623.011C997.824 641.146 999.517 656.72 992.494 675.279C919.632 696.154 871.77 618.441 801.073 630.162L809.066 670.444C874.471 672.611 915.324 735.791 982.895 733.075C973.296 752.39 987.179 803.276 944.647 782.935C900.5 772.249 868.582 733.075 820.204 733.075C814.367 743.871 818.062 758.819 817.039 771.589C868.075 779.656 904.779 823.106 955.8 831.129C951 848.792 946.244 868.57 931.874 879.342C890.366 869.167 857.945 831.615 813.755 832.689L805.887 869.677C847.883 870.765 875.016 908.192 912.757 919.426C913.795 935.029 899.951 948.97 891.977 962.896C858.471 952.76 832.92 923.765 794.639 925.903C794.108 911.375 802.67 894.877 799.438 879.342C756.443 892.223 727.613 851.98 695.746 827.84C694.829 748.841 612.271 697.016 607.911 623.011C607.075 608.256 609.307 592.504 615.981 575.578C643.114 512.379 634.591 430.327 604.838 371.404C595.798 355.898 579.779 343.657 564.85 334.541C586.691 381.17 613.309 436.264 600.024 493.579C598.484 537.838 572.56 580.345 572.264 623.011C572.164 638.223 575.386 653.435 584.072 668.797C618.663 731.553 680.894 790.958 657.494 869.663C651.059 893.837 631.9 912.531 627.119 937.133C667.585 970.895 705.847 1008.94 759.541 1011.08C778.672 998.772 768.045 944.188 807.402 969.364L864.867 998.319C860.68 1013.82 847.801 1027.7 836.137 1038.38C814.334 1027.68 793.066 1014.87 765.88 1015.92C757.863 1024.48 750.965 1034.1 751.577 1046.39C770.708 1049.57 788.257 1057.7 804.238 1068.97C796.818 1085.07 782.358 1095.16 769.063 1107.48L724.486 1091.43C717.043 1102.16 701.583 1113.43 707.009 1125.2C717.067 1129.54 728.224 1135.41 735.629 1142.93C715.953 1164.35 691.014 1178.13 667.016 1192.67C646.346 1124.62 578.24 1076.9 584.086 998.194L580.921 995.011C564.912 1013.14 570.261 1042.14 571.294 1065.66C590.453 1114.96 636.154 1153.04 643.086 1207.1C635.083 1221.01 617.042 1223.78 603.203 1229.67C604.809 1132.21 458.046 1058.28 552.162 959.694C583.551 911.418 636.14 865.348 617.506 798.884C598.375 734.712 530.708 694.95 531.306 623.011L531.411 617.401C546.823 542.38 593.642 462.552 555.341 382.744C544.667 350.644 520.817 314.166 488.378 300.75C536.741 356.514 555.915 447.499 528.246 522.535C514.302 552.381 495.104 587.939 493.177 623.025H493.062C492.035 641.348 495.749 659.57 507.485 676.849C544.208 736.869 607.988 802.799 571.298 881.018C529.824 943.668 457.501 1007.4 497.891 1089.92C527.137 1139.2 572.379 1188.37 560.174 1248.96L512.313 1265.01C544.222 1152.01 387.855 1085.62 453.313 972.576C493.727 912.044 566.006 855.25 525.091 774.912C500.63 725.134 450.087 695.672 451.683 633.465L453.423 623.021C469.892 534.795 536.468 451.284 489.917 357.005C477.684 329.167 453.237 300.784 426.103 284.7L424.464 286.352C478.736 339.385 495.247 426.643 465.986 496.786C452.333 537.94 422.37 578.934 416.28 623.035C413.383 643.828 415.826 665.378 427.753 688.078C462.315 743.211 522.926 801.696 485.103 872.976C445.273 931.851 378.777 989.136 405.337 1065.7C434.593 1132.68 495.682 1196.49 462.697 1279.55L413.311 1290.79C452.649 1209.84 393.664 1129.52 359.111 1059.32C317.077 958.606 449.422 910.378 451.545 818.295C451.043 758.862 388.319 725.115 375.063 670.478C347.915 647.406 319.778 679.651 287.324 673.666C263.364 678.515 226.565 640.443 212.262 681.712C195.229 742.215 117.634 786.696 151.737 858.457C184.187 922.229 262.279 968.863 236.193 1051.39C212.836 1128.48 135.68 1201.88 183.532 1290.79C163.875 1284.37 127.166 1296.65 127.697 1265.02C97.3985 1157.35 226.603 1094.62 186.696 987.008C168.124 921.093 83.5067 884.678 102.136 805.399C115.908 740.139 188.604 694.517 178.407 623.03C177.58 617.044 176.117 610.919 174.028 604.534C146.895 527.394 91.5378 450.234 124.532 360.203C133.591 334.488 151.685 312.529 167.584 289.545C114.933 317.927 88.3731 377.943 89.4631 439C87.1685 505.396 135.857 562.273 142.784 623.03C145.508 647.551 141.522 672.659 124.532 699.294C89.9937 746.505 44.8237 796.284 65.5324 858.447C85.2228 921.15 162.857 959.135 158.071 1032.02C157.545 1118.23 58.0989 1171.91 86.2841 1268.33L36.7878 1252.15C17.1357 1166.47 107.523 1122.64 108.561 1043.36C121.353 952.201 5.93039 918.377 12.8572 829.511C12.36 761.992 71.3597 719.23 97.4177 662.436C101.887 648.615 103.374 635.555 102.776 623.035C99.5832 560.24 43.4135 511.146 52.7353 440.545C55.8712 388.586 73.42 343.04 106.935 303.962C60.6946 322.675 41.5922 376.296 28.8189 421.302C6.65222 493.468 59.5664 558.382 64.8727 623.04C67.2246 651.591 60.2979 679.979 33.628 709.002C-4.68207 754.48 -43.5324 811.862 -15.873 872.985C13.4165 940.427 105.434 992.921 65.5228 1077.04C43.7481 1130.08 -8.39166 1170.23 -6.25006 1232.89C-20.0654 1226.99 -34.397 1221.12 -46.1377 1210.43C-46.1377 1130.63 66.5554 1080.79 12.862 996.682C8.10547 1013.28 7.08249 1035.83 3.35855 1054.57C-15.2754 1103.35 -55.144 1142.39 -70.0636 1192.8C-95.0125 1183.11 -121.099 1162.73 -141.851 1141.3L-113.106 1123.58C-116.3 1112.85 -124.794 1103.75 -132.223 1094.64C-150.891 1092 -163.147 1104.34 -178.536 1109.17C-191.83 1097.37 -204.66 1086.65 -215.259 1072.18C-205.717 1044.81 -131.162 1067.45 -168.932 1022.44C-194.43 1006.38 -220.025 1029.32 -242.354 1040.03L-272.623 1001.51C-246.565 985.457 -220.574 962.906 -188.163 969.373C-180.175 983.863 -179.621 1005.17 -164.233 1012.74C-109.449 1011.66 -70.6324 969.922 -28.6367 937.234C-57.907 893.36 -81.7325 832.79 -55.7319 779.733C-34.899 726.564 19.3824 681.784 21.8443 623.006C22.3989 609.628 20.3289 595.553 14.5208 580.403C-14.1807 505.931 -24.3104 405.281 30.473 339.366C0.68631 347.427 -16.8769 384.825 -26.9969 413.222C-59.9291 485.941 -18.2775 553.311 -16.8386 623.001C-16.6426 635.536 -17.6513 648.1 -20.6677 660.755C-48.8625 718.07 -94.544 768.358 -101.963 834.312C-134.412 855.163 -161.054 891.626 -207.29 879.323C-208.915 891.631 -205.191 910.392 -200.951 924.333C-237.616 922.783 -262.618 950.005 -293.49 962.863C-309.934 957.546 -314.213 936.131 -320.58 921.146C-284.445 908.852 -258.378 872.359 -216.889 872.937C-212.08 859.478 -219.585 847.145 -221.703 834.302C-273.312 811.226 -355.119 948.373 -361.998 829.467C-310.427 826.251 -277.471 778.028 -226.397 773.222L-224.872 734.707C-282.834 728.808 -320.121 788.834 -378.06 782.916L-390.838 731.519C-323.817 735.738 -283.886 675.235 -220.058 671.98C-211.578 660.745 -210.555 644.137 -208.92 628.616C-278.589 619.471 -326.398 697.247 -400.341 673.627C-400.341 673.627 -402.889 641.257 -404.271 623.006H-404.17C-404.672 615.869 -405.15 610.895 -405.15 610.895C-339.214 636.668 -281.281 588.96 -224.872 564.334C-210.526 560.009 -188.154 567.507 -181.719 551.452C-182.279 539.129 -159.969 524.721 -178.54 516.12C-261.007 504.847 -315.79 605.044 -400.351 559.484L-406.694 546.603C-389.102 304.502 -253.559 70.4376 -28.6367 -44.7452C62.4586 -97.1864 175.63 -123.917 289.762 -124.866C427.499 -126.017 566.676 -89.6212 670.21 -15.7942C770.751 46.331 866.923 148.714 919.115 252.648C969.032 343.71 992.007 445.891 998.867 554.674C911.634 621.07 853.112 492.12 764.283 520.979C769.068 534.935 771.717 549.372 781.87 561.155C860.598 560.597 914.813 643.636 997.222 610.909L997.294 623.011ZM-4.73465 324.842C-60.0486 288.403 -130.177 322.714 -181.729 342.559C-186.514 293.787 -206.176 249.354 -247.173 217.215C-251.15 215.222 -256.647 211.027 -261.6 210.719C-264.564 210.531 -267.384 211.735 -269.573 215.554C-250.992 330.708 -325.303 411.06 -377.964 498.414C-360.43 512.851 -332.259 510.693 -310.991 506.451C-255.165 483.962 -201.988 444.822 -135.517 458.238C-115.86 424.49 -82.832 391.802 -55.751 365.018C-39.2061 350.596 -16.4753 341.437 -4.73465 324.842ZM164.405 397.162C163.344 404.097 164.936 416.458 175.548 411.681C192.06 388.648 221.292 406.87 239.362 408.493V402.011C229.447 386.327 209.049 378.449 188.336 379.234C183.556 379.402 178.699 380.105 174.023 381.199C167.092 382.749 162.268 389.139 164.405 397.162ZM424.44 328.151C409.592 294.928 375.555 281.483 344.669 273.451C329.53 271.573 313.817 270.302 298.233 270.152C295.312 270.123 292.396 270.085 289.489 270.152C245.897 271.038 204.245 282.312 178.799 318.457C175.147 328.661 159.09 342.992 174 352.137C207.505 349.98 245.739 345.747 268.073 374.712C268.073 400.451 284.57 434.694 256.93 447.017C234.027 425.656 206.903 456.109 181.983 438.966C170.266 431.993 162.852 440.131 158.052 450.306C151.125 516.717 185.645 590.01 247.321 626.96C272.318 636.042 305.919 644.681 332.006 631.794C394.754 602.362 420.745 534.906 432.428 472.756C430.86 460.93 431.419 437.882 414.946 437.324C396.345 449.175 369.217 442.173 349.502 437.324C337.848 441.114 337.312 458.291 324.047 461.546L315.963 455.05C309.041 425.632 304.772 383.833 331.92 363.477C362.256 351.155 397.885 345.771 429.258 355.44C435.114 345.27 426.075 337.262 424.44 328.151ZM392.425 380.972C390.317 381.025 388.267 381.131 386.192 381.199C375.049 388.687 342.576 383.303 354.297 408.493C374.518 392.38 402.703 403.673 422.91 411.681C430.382 407.944 428.761 400.442 429.254 393.974C422.767 381.815 407.264 380.674 392.425 380.972ZM623.959 154.478C584.597 152.374 551.637 174.882 515.468 185.067C512.318 154.064 535.699 121.323 541.034 90.2006C482.555 93.9904 436.238 129.447 387.86 157.772C376.665 130.521 365.435 103.13 354.316 75.778L418.13 14.693L419.765 6.64619L333.569 1.8114C318.721 -24.3948 312.87 -55.9606 295.321 -80.0672C280.961 -52.7486 271.314 -23.8362 256.968 3.45831L170.873 8.30756V14.693L236.216 74.1263C228.228 104.676 220.804 137.87 201.147 160.96C162.861 137.86 125.12 112.718 83.1434 96.6775C73.0424 93.3933 58.6438 88.0529 49.6041 95.0306C62.8792 124.502 81.4702 156.202 78.3438 188.37C60.7854 185.115 46.9845 173.774 30.4873 169.007C10.7586 163.585 -12.651 152.99 -31.7917 159.434C0.122253 204.406 26.1706 251.473 35.1816 305.595C141.053 254.121 264.521 225.811 392.684 247.808C452.759 257.439 508.001 282.09 561.719 302.397C563.817 245.646 599.445 200.043 623.959 154.478ZM805.767 463.077C859.967 477.529 914.34 537.015 971.733 498.419C921.749 414.864 847.352 337.705 868.042 228.44C870.207 220.981 865.422 213.43 858.538 212.371C826.113 225.719 801.001 257.902 788.171 289.535C782.893 308.243 779.767 328.131 772.333 345.766C733.488 325.401 692.037 305.672 644.711 310.439C627.645 312.582 603.179 313.709 600.029 331.358C653.736 360.27 697.902 408.522 730.815 459.904C753.733 456.138 781.837 459.355 805.767 463.077ZM237.827 538.59L239.357 548.274C260.138 562.22 266.529 585.854 295.297 583.706C320.81 585.233 339.951 561.155 352.662 541.884C318.138 537.082 276.128 544.513 237.827 538.59ZM266.558 495.226C267.595 499.516 263.924 505.945 269.722 508.112C286.74 504.39 317.569 517.233 327.073 496.878C320.438 489.389 309.605 485.99 298.237 485.99C286.874 485.99 275.081 489.327 266.558 495.226Z" fill="#1D4D4F"/>
<path opacity="0.2" d="M259.406 502.44C274.474 506.033 278.202 511.416 290.11 512.919C302.769 512.692 300.943 510.102 323.023 502.426C324.472 501.91 326.465 498.689 323.994 496.218C310.284 482.509 300.809 492.303 292.214 492.563C280.812 492.689 270.119 482.73 258.98 495.674C257.082 498.304 256.093 500.885 259.406 502.44Z" fill="#1D4D4F"/>
</svg>
