<svg width="262" height="27" viewBox="0 0 262 27" fill="none" xmlns="http://www.w3.org/2000/svg">
<path d="M165.364 14.4164C165.344 22.2998 161.131 26.5194 153.267 26.5194C145.546 26.5194 141.21 22.1706 141.229 14.494L141.274 0.523552H149.94L149.92 14.0481C149.907 17.7959 150.877 19.4566 153.216 19.4437C155.548 19.4502 156.679 17.951 156.692 13.6604L156.731 0.51709H165.409L165.364 14.4164Z" fill="white"/>
<path d="M41.0195 6.97243L40.9614 25.9895H32.1927L32.2509 6.97243L24.9167 6.97889L24.9361 0.51709L48.3666 0.523552L48.3472 6.97889L41.0195 6.97243Z" fill="white"/>
<path d="M63.1123 6.32625L60.9347 15.0497L65.2964 15.0561L63.1123 6.32625ZM68.6953 25.9895L67.235 21.3176H59.0091L57.4518 25.9895L48.7219 25.996L57.6521 0.51709H68.7341L77.4317 25.9895H68.6953Z" fill="white"/>
<path d="M193.453 24.025L190.843 17.4146C189.298 18.6294 187.728 19.7279 185.182 19.7215C181.744 19.7215 179.457 16.7684 179.47 13.1627C179.476 9.50536 181.499 6.44893 185.085 6.44247C187.34 6.42954 189.311 7.61851 190.875 8.93026L193.473 2.46846C190.578 0.943478 187.689 0.0259026 183.709 0.0259026C176.336 0.012979 170.734 5.29873 170.714 13.0917C170.688 21.3175 176.11 26.5257 183.877 26.5257C188.155 26.5193 191.159 25.4854 193.453 24.025Z" fill="white"/>
<path d="M213.142 25.9958L207.689 16.7167L207.656 26.0088L199.14 25.9958L199.217 0.523438H207.734L207.702 9.85427L212.865 0.529899H222.37L214.344 13.0852L223.326 26.0023L213.142 25.9958Z" fill="white"/>
<path d="M10.229 26.5128C15.7539 26.5063 21.4726 24.4514 21.4855 17.938C21.5113 12.0577 16.7296 10.4552 13.0141 9.60869C10.2096 8.98836 8.85266 8.67819 8.86559 7.50215C8.86559 5.95131 10.7654 5.82208 11.7734 5.82208C14.3 5.82854 16.6521 6.90766 18.6746 8.19356L20.9621 2.39087C17.9896 1.05327 14.4033 0 11.0367 0C5.30514 0 0.814186 2.89488 0.807725 8.7105C0.788339 13.4858 4.23894 15.3274 8.06432 16.316C10.7007 16.9945 12.3937 17.2142 12.3873 18.5712C12.3808 19.9411 11.0884 20.3482 9.82839 20.3417C7.0369 20.3482 4.39402 19.0817 2.76565 17.6019L0 23.2302C2.9595 25.2462 6.57811 26.5128 10.229 26.5128Z" fill="white"/>
<path d="M236.218 26.5191C241.736 26.5191 247.468 24.4707 247.487 17.9508C247.5 12.0705 242.731 10.4615 239.009 9.62796C236.198 8.99471 234.854 8.69746 234.861 7.52142C234.873 5.95766 236.754 5.84135 237.762 5.83489C240.288 5.84135 242.641 6.92047 244.657 8.21929L246.957 2.41014C243.978 1.07254 240.379 0.0192713 237.025 0.00634766C231.3 0.0192713 226.809 2.89477 226.796 8.72331C226.777 13.505 230.24 15.3531 234.046 16.3418C236.683 17.0203 238.382 17.2206 238.369 18.5969C238.369 19.9604 237.077 20.3675 235.817 20.3675C233.032 20.3675 230.389 19.101 228.741 17.6212L225.989 23.2494C228.948 25.2526 232.58 26.5191 236.218 26.5191Z" fill="white"/>
<path d="M100.552 16.4777C103.531 15.3405 105.159 12.1871 105.159 9.2599C105.185 3.25043 101.263 0.523552 95.6798 0.530013L82.5365 0.51709L82.4719 25.9895H90.9046L90.924 18.4357H93.0563L97.4116 25.9895H106.523L100.552 16.4777ZM96.6233 9.29221C96.6103 10.9658 95.6088 11.9351 93.9481 11.9351L90.9498 11.9286L90.9692 6.61056H93.9998C95.6023 6.61703 96.6362 7.46998 96.6297 9.21467V9.29221H96.6233Z" fill="white"/>
<path d="M130.134 12.9882C133.3 12.2774 134.864 10.41 134.871 7.30832C134.89 2.966 131.788 0.523438 126.315 0.523438L112.435 0.529899L112.377 26.0088H125.701C132.137 25.9894 135.349 23.6179 135.355 18.8103C135.362 15.4954 133.365 13.2596 130.134 12.9882ZM120.771 6.04827H123.828C125.436 6.03535 126.49 6.76553 126.49 8.25821L126.483 8.32929C126.483 9.74442 125.462 10.5715 123.782 10.578L120.765 10.5845L120.771 6.04827ZM126.58 18.1125C126.587 19.5987 125.533 20.4775 123.815 20.471L120.726 20.4775L120.739 15.7022H123.86C125.508 15.7022 126.58 16.4712 126.587 18.0414L126.58 18.1125Z" fill="white"/>
<path d="M253.832 1.78991H252.01V7.8123H251.041V1.78991H249.244V0.885254H253.839V1.78991H253.832ZM255.654 7.81876H254.685V0.885254H256.184L257.955 6.1387L259.667 0.885254H261.16V7.81876H260.191V2.02899H260.165L258.239 7.8123H257.612L255.687 2.02899H255.661V7.81876H255.654Z" fill="white"/>
</svg>
