<svg width="363" height="385" viewBox="0 0 363 385" fill="none" xmlns="http://www.w3.org/2000/svg">
<g opacity="0.2">
<g clip-path="url(#clip0_406_1329)">
<path d="M48.7495 35.8872L45.4686 35.8941L45.4421 23.2895C47.0867 22.953 48.3275 21.4911 48.3238 19.7479C48.3196 17.7597 46.7002 16.1471 44.7121 16.1513L43.2234 16.1545L33.8703 16.1742C36.1084 13.9267 36.8944 10.458 35.9761 6.89495C35.8181 6.29786 35.347 5.82875 34.7492 5.6733C31.1824 4.7602 27.717 5.5608 25.479 7.8083C24.8535 8.43642 24.3359 9.16226 23.9458 9.94659C22.8371 8.98913 21.4257 8.45344 19.937 8.45657C19.5453 8.4574 19.1634 8.49738 18.7914 8.56672C18.3187 7.34348 17.4638 5.99373 15.9536 5.0665C15.6103 4.85176 15.1601 4.96044 14.9453 5.31347C14.7306 5.65671 14.8393 6.10699 15.1923 6.32172C16.3298 7.01468 16.998 8.06122 17.382 9.0202C15.2882 9.99421 13.8334 12.1225 13.8386 14.5808C13.8397 15.139 13.9192 15.6873 14.0673 16.2159L5.49768 16.2339C3.50954 16.2381 1.89697 17.8575 1.90116 19.8456C1.90483 21.5889 3.15171 23.0456 4.79777 23.3751L4.8243 35.9699L1.54338 35.9768C0.730494 35.9786 0.0756912 36.6361 0.0774034 37.449L0.0815704 39.4274C0.0852836 41.1902 1.51819 42.6171 3.28107 42.6134L4.14293 42.6116L4.14716 44.6193C4.14924 45.6085 4.95403 46.4099 5.9432 46.4078L44.4035 46.3268C45.3926 46.3247 46.194 45.5199 46.192 44.5308L46.1877 42.523L47.0496 42.5212C48.8125 42.5175 50.2393 41.0846 50.2356 39.3217L50.2315 37.3434C50.22 36.5403 49.5624 35.8855 48.7495 35.8872ZM26.5193 8.85405C28.4153 6.95005 31.2836 6.30741 34.3899 7.09417C34.4683 7.11359 34.537 7.182 34.5567 7.26031C35.3565 10.3633 34.7358 13.2342 32.8398 15.1382C32.4391 15.5406 31.9991 15.8843 31.51 16.1693C31.5002 16.1694 31.5002 16.1792 31.4904 16.1792L26.525 16.1896L28.0985 14.6095C28.6374 14.7357 29.186 14.8031 29.7344 14.8019C29.9891 14.8014 30.2437 14.7911 30.4983 14.7612C30.8997 14.7113 31.1928 14.3483 31.143 13.9469C31.0931 13.5455 30.7301 13.2524 30.3287 13.3022C30.0056 13.3421 29.6824 13.3428 29.369 13.3238L30.1508 12.5387C30.6897 12.6649 31.2383 12.7323 31.7868 12.7311C32.0414 12.7306 32.296 12.7202 32.5506 12.6903C32.9521 12.6405 33.2451 12.2775 33.1953 11.8761C33.1455 11.4746 32.7825 11.1816 32.381 11.2314C32.0579 11.2713 31.7347 11.2719 31.4213 11.253L32.4182 10.2519C32.7016 9.96732 32.7006 9.49722 32.416 9.2138C32.1314 8.93037 31.6613 8.93136 31.3778 9.21598L30.381 10.2171C30.3607 9.8939 30.3698 9.58048 30.3985 9.25722C30.4467 8.85557 30.1521 8.49382 29.7504 8.4457C29.3488 8.39757 28.987 8.69215 28.9389 9.0938C28.8525 9.90687 28.9031 10.7099 29.1007 11.493L28.3188 12.2781C28.2985 11.955 28.3077 11.6415 28.3364 11.3183C28.3845 10.9166 28.0899 10.5549 27.6883 10.5067C27.2866 10.4586 26.9249 10.7532 26.8767 11.1549C26.7903 11.9679 26.841 12.7709 27.0385 13.554L24.6148 15.988C24.0996 13.188 24.7699 10.601 26.5193 8.85405ZM17.7964 10.459C17.9152 11.0856 17.9259 11.5165 17.926 11.5361C17.9268 11.9376 18.2605 12.2699 18.6621 12.2691C19.0636 12.2682 19.3959 11.9345 19.395 11.533C19.3949 11.4644 19.3838 10.8474 19.2057 9.99575C19.4407 9.95608 19.6855 9.93597 19.9303 9.93546C21.2329 9.93272 22.4681 10.4786 23.3516 11.4365C22.9335 12.8967 22.8585 14.5128 23.1657 16.2065L15.6049 16.2224C15.4079 15.7038 15.3088 15.1555 15.3076 14.5875C15.3039 12.7952 16.3191 11.2359 17.7964 10.459ZM3.37025 19.8523C3.36777 18.6771 4.32554 17.7153 5.5008 17.7128L40.9935 17.638L44.7054 17.6302C45.8806 17.6277 46.8425 18.5855 46.8449 19.7608C46.8474 20.936 45.8896 21.8978 44.7144 21.9003L37.8979 21.9147C36.0077 21.9186 34.4635 23.4595 34.4675 25.3595L34.479 30.8147C34.4813 31.9214 33.5822 32.8145 32.4853 32.8168C31.3884 32.8191 30.4854 31.92 30.4831 30.8231L30.4716 25.3582C30.4676 23.4679 28.9268 21.9238 27.0268 21.9278C25.1366 21.9317 23.5924 23.4726 23.5964 25.3726L23.601 27.5664C23.6031 28.5654 22.7919 29.38 21.793 29.3821C20.794 29.3842 19.9794 28.573 19.9773 27.5741L19.9727 25.3803C19.9687 23.4901 18.4278 21.9459 16.5278 21.9499L5.50977 21.9731C4.33454 21.9854 3.37272 21.0276 3.37025 19.8523ZM28.0356 35.9308L6.29339 35.9766L6.27627 27.8478L18.5283 27.822C18.6494 29.5161 20.0724 30.8646 21.8059 30.861C23.5394 30.8573 24.9566 29.5126 25.0706 27.8082L29.0077 27.7999L29.014 30.8164C29.0181 32.7262 30.5786 34.2801 32.4883 34.2761C34.3981 34.2721 35.9521 32.7116 35.9481 30.8018L35.9417 27.7853L43.9726 27.7684L43.9897 35.8972L28.0356 35.9308ZM6.27318 26.3787L6.26701 23.4504L16.5407 23.4287C17.6278 23.4264 18.5111 24.306 18.5134 25.3931L18.5154 26.3529L6.27318 26.3787ZM25.0773 26.3391L25.0752 25.3695C25.0729 24.2824 25.9525 23.3991 27.0396 23.3968C28.1268 23.3945 29.0101 24.2741 29.0123 25.3612L29.0144 26.321L25.0773 26.3293L25.0773 26.3391ZM35.9484 26.3162L35.9464 25.3466C35.9441 24.2595 36.8237 23.3762 37.9108 23.3739L43.9731 23.3612L43.9793 26.2895L35.9484 26.3064L35.9484 26.3162ZM44.7229 44.5437C44.7233 44.72 44.5767 44.8672 44.4004 44.8675L5.93033 44.9486C5.75404 44.9489 5.60683 44.8023 5.60646 44.6261L5.60223 42.6183L39.3811 42.5472L42.1429 42.5414L44.7089 42.536L44.7131 44.5437L44.7229 44.5437ZM48.7568 39.3346C48.7588 40.2846 47.9867 41.06 47.0367 41.062L42.1496 41.0723L39.3877 41.0781L3.278 41.1541C2.328 41.1561 1.55266 40.3841 1.55066 39.4341L1.54647 37.4459L23.5042 37.3997L48.7428 37.3465L48.747 39.3347L48.7568 39.3346Z" fill="#4AA366"/>
<path d="M9.20771 29.4184L9.19791 29.4184C8.79637 29.4192 8.46408 29.7529 8.46493 30.1545C8.46577 30.556 8.79946 30.8883 9.20101 30.8874L9.2108 30.8874C9.61235 30.8866 9.94464 30.5529 9.94379 30.1513C9.94292 29.74 9.60925 29.4175 9.20771 29.4184Z" fill="#4AA366"/>
<path d="M11.3859 31.1669L11.3761 31.1669C10.9746 31.1678 10.6423 31.5014 10.6431 31.903C10.644 32.3045 10.9777 32.6368 11.3792 32.636L11.389 32.636C11.7906 32.6351 12.1229 32.3014 12.122 31.8999C12.1211 31.4885 11.7973 31.166 11.3859 31.1669Z" fill="#4AA366"/>
<path d="M40.028 28.9032L40.0182 28.9032C39.6167 28.9041 39.2844 29.2378 39.2852 29.6393C39.2861 30.0409 39.6198 30.3732 40.0213 30.3723L40.0311 30.3723C40.4327 30.3714 40.7649 30.0378 40.7641 29.6362C40.7633 29.2347 40.4296 28.9024 40.028 28.9032Z" fill="#4AA366"/>
</g>
<g clip-path="url(#clip1_406_1329)">
<path d="M134.38 38.7236C134.76 37.7924 134.953 36.744 134.951 35.6569C134.948 33.9724 134.464 32.377 133.59 31.1742C133.129 30.5386 132.599 30.05 132.001 29.7183L131.978 19.2193C131.976 18.191 131.132 17.3505 130.104 17.3526L127.332 17.3585L96.9323 17.4225C95.9039 17.4247 95.0634 18.2687 95.0656 19.2971L95.0675 20.1883L91.3066 20.1962C87.9278 20.2033 85.1913 22.9514 85.1984 26.3302L85.2037 28.8473C85.2108 32.2261 87.9589 34.9626 91.3377 34.9555L95.0985 34.9476L95.0993 35.3295C95.1019 36.5342 95.4276 37.7087 96.0271 38.7358L93.1771 38.7418C92.3936 38.7435 91.7584 39.3814 91.76 40.1649L91.7639 41.9964C91.7674 43.6515 93.1218 45.0002 94.7769 44.9967L112.778 44.9588L116.323 44.9513L132.366 44.9176C134.021 44.9141 135.369 43.5597 135.366 41.9045L135.362 40.0731C135.371 39.4463 134.958 38.9085 134.38 38.7236ZM130.798 30.7785C132.327 31.265 133.477 33.2703 133.482 35.6502C133.484 36.7275 133.242 37.7858 132.793 38.6486L130.815 38.6528L130.798 30.7785ZM96.5346 19.294C96.5342 19.0687 96.7101 18.8921 96.9353 18.8916L124.28 18.834L130.107 18.8217C130.332 18.8212 130.509 18.9972 130.509 19.2224L130.53 29.2219C130.374 29.2026 130.217 29.1932 130.06 29.1935C128.199 29.1974 126.557 30.5524 125.739 32.6696C124.649 31.6436 123.345 30.9705 122.033 30.7676C120.563 30.5357 119.261 30.9008 118.372 31.8037C117.473 32.7066 117.113 34.01 117.351 35.4687C117.53 36.5947 118.061 37.71 118.847 38.6878L97.8292 38.732C97.0241 37.7837 96.571 36.5702 96.5684 35.3264L96.5611 31.8692L96.5346 19.294V19.294ZM126.868 33.9894C127.266 32.3726 128.213 31.1659 129.339 30.7914L129.355 38.6656L127.926 38.6686C128.285 37.238 127.89 35.5053 126.868 33.9894ZM120.028 32.4172C121.339 31.817 123.368 32.3808 124.87 33.8761C126.332 35.3323 126.953 37.3485 126.368 38.6719L126.31 38.672L120.028 32.4172ZM124.233 38.6764L120.903 38.6834C120.756 38.5564 120.609 38.4294 120.472 38.2926C119.569 37.3935 118.979 36.3076 118.8 35.2404C118.691 34.5649 118.758 33.9575 118.983 33.4576L124.233 38.6764ZM95.0861 29.0615C95.0861 29.0615 95.0862 29.0713 95.0861 29.0615L95.0894 30.6285L91.3286 30.6364C90.3297 30.6385 89.5151 29.8274 89.513 28.8284L89.5077 26.3114C89.5055 25.3124 90.3167 24.4978 91.3157 24.4957L95.0765 24.4878L95.0861 29.0615ZM95.0954 33.4785L91.3346 33.4864C88.7686 33.4918 86.6782 31.4101 86.6728 28.8442L86.6675 26.3272C86.6621 23.7612 88.7437 21.6707 91.3097 21.6653L95.0705 21.6574L95.0734 23.0285L91.3126 23.0364C89.5008 23.0402 88.0348 24.5124 88.0386 26.3243L88.0439 28.8413C88.0477 30.6531 89.5199 32.1191 91.3317 32.1153L95.0926 32.1074L95.0954 33.4785ZM133.907 41.9076C133.908 42.7597 133.224 43.4467 132.372 43.4485L116.33 43.4823L112.785 43.4897L94.7836 43.5276C93.9316 43.5294 93.2446 42.8453 93.2428 41.9933L93.239 40.2108L133.903 40.1251L133.907 41.9076Z" fill="#4AA366"/>
<path d="M107.888 15.5387C108.074 15.5383 108.26 15.4693 108.406 15.3221C108.69 15.0375 108.689 14.5674 108.404 14.284C108.267 14.1471 108.188 13.971 108.188 13.7751C108.187 13.5793 108.265 13.4028 108.402 13.2654L112.341 9.3102C113.191 8.45634 113.188 7.06562 112.334 6.20556C112.049 5.92214 111.579 5.92313 111.296 6.20775C111.012 6.49237 111.013 6.96247 111.298 7.24589C111.583 7.52932 111.584 7.98962 111.3 8.26445L107.362 12.2197C106.511 13.0735 106.514 14.4642 107.368 15.3243C107.506 15.4709 107.692 15.5391 107.888 15.5387Z" fill="#4AA366"/>
<path d="M116.461 7.75374C116.461 7.94962 116.383 8.12607 116.246 8.26347L112.308 12.2187C111.457 13.0725 111.46 14.4633 112.314 15.3233C112.461 15.4699 112.648 15.5381 112.834 15.5377C113.02 15.5373 113.206 15.4684 113.352 15.3211C113.636 15.0365 113.635 14.5664 113.35 14.283C113.066 13.9996 113.065 13.5393 113.348 13.2644L117.287 9.29943C117.697 8.88722 117.931 8.33827 117.93 7.75065C117.928 7.16302 117.702 6.61504 117.28 6.20459C116.995 5.92117 116.525 5.92216 116.242 6.20677C115.958 6.49139 115.959 6.9615 116.244 7.24492C116.382 7.38174 116.46 7.55786 116.461 7.75374Z" fill="#4AA366"/>
<path d="M121.202 8.25322L117.263 12.2084C116.413 13.0623 116.416 14.453 117.27 15.3131C117.417 15.4597 117.603 15.5278 117.789 15.5274C117.975 15.527 118.161 15.4581 118.308 15.3109C118.591 15.0263 118.59 14.5562 118.306 14.2727C118.021 13.9893 118.02 13.529 118.304 13.2542L122.242 9.29897C123.092 8.44511 123.089 7.05439 122.236 6.19433C121.951 5.91091 121.481 5.9119 121.197 6.19652C120.914 6.48114 120.915 6.95124 121.2 7.23466C121.484 7.50829 121.485 7.9686 121.202 8.25322Z" fill="#4AA366"/>
</g>
<g clip-path="url(#clip2_406_1329)">
<path d="M193.721 12.3404C194.083 12.5159 194.524 12.3583 194.699 11.9857C195.284 10.7309 196.566 9.91531 197.956 9.91238C199.837 9.90842 201.417 11.3742 201.548 13.2445C201.568 13.5873 201.823 13.8609 202.166 13.919C202.803 14.0254 203.391 14.318 203.862 14.7675C204.01 14.9043 204.186 14.9725 204.372 14.9721C204.568 14.9717 204.754 14.8929 204.901 14.7457C205.184 14.4513 205.173 13.991 204.879 13.7076C204.329 13.1799 203.662 12.7993 202.937 12.5854C202.501 10.2162 200.402 8.43815 197.943 8.44333C195.994 8.44744 194.195 9.59711 193.366 11.3617C193.2 11.7343 193.358 12.1747 193.721 12.3404Z" fill="#4AA366"/>
<path d="M219.095 39.4453L216.245 39.4513C216.84 38.4217 217.171 37.2457 217.168 36.0411L217.167 35.3065L217.161 32.5349L217.134 20.0086C217.132 18.9803 216.288 18.1398 215.26 18.1419L214.76 18.143C214.007 13.7765 210.425 10.3758 206.026 9.85621C204.404 6.79416 201.188 4.84216 197.701 4.84951C192.98 4.85945 189.002 8.4132 188.404 13.0372C185.693 13.6697 183.444 15.6038 182.402 18.2112L182.078 18.2118C181.05 18.214 180.21 19.058 180.212 20.0864L180.214 20.9776L176.453 20.9856C173.074 20.9829 170.338 23.7407 170.345 27.1098L170.35 29.6268C170.357 33.0056 173.105 35.7421 176.484 35.735L180.245 35.7271L180.246 36.1091C180.248 37.3137 180.574 38.4883 181.173 39.5154L178.323 39.5214C177.54 39.523 176.905 40.1609 176.906 40.9445L176.91 42.7759C176.914 44.431 178.268 45.7797 179.923 45.7763L217.512 45.6971C219.167 45.6936 220.516 44.3392 220.512 42.6841L220.508 40.8526C220.516 40.0789 219.878 39.4436 219.095 39.4453ZM180.236 31.4178L176.475 31.4257C175.476 31.4278 174.661 30.6167 174.659 29.6177L174.654 27.1007C174.652 26.1017 175.463 25.2871 176.462 25.285L180.223 25.2771L180.236 31.4178ZM180.22 23.8178L176.459 23.8258C174.647 23.8296 173.181 25.3017 173.185 27.1136L173.19 29.6306C173.194 31.4425 174.666 32.9084 176.478 32.9046L180.239 32.8967L180.242 34.2678L176.481 34.2757C173.915 34.2811 171.824 32.1995 171.819 29.6335L171.814 27.1165C171.808 24.5505 173.89 22.46 176.456 22.4546L180.217 22.4467L180.22 23.8178ZM215.692 32.538L215.698 35.3096L215.699 36.0442C215.702 37.2586 215.283 38.4347 214.521 39.3766C214.502 39.406 214.482 39.4256 214.463 39.455L198.342 39.489L191.839 39.5027L182.966 39.5214C182.161 38.5731 181.707 37.3596 181.705 36.1158L181.683 25.5091L215.667 25.4375L215.682 32.538L215.692 32.538ZM189.21 14.3674C189.543 14.308 189.797 14.0332 189.826 13.6904C190.111 9.56654 193.571 6.31749 197.714 6.30876C200.769 6.30233 203.584 8.08867 204.892 10.8478C205.001 11.0826 205.236 11.2486 205.501 11.2676C209.331 11.5534 212.52 14.4065 213.272 18.1265L202.009 18.1503L193.371 18.1685L184.018 18.1882C185.022 16.1881 186.949 14.7444 189.21 14.3674ZM181.681 20.0833C181.68 19.858 181.856 19.6814 182.082 19.6809L193.374 19.6571L202.012 19.6389L215.263 19.611C215.488 19.6105 215.665 19.7865 215.665 20.0117L215.674 23.9782L181.689 24.0498L181.681 20.0833V20.0833ZM219.053 42.6969C219.055 43.549 218.371 44.236 217.518 44.2378L179.93 44.317C179.078 44.3188 178.391 43.6346 178.389 42.7826L178.385 41.0001L191.852 40.9717L198.355 40.958L219.049 40.9145L219.053 42.6969Z" fill="#4AA366"/>
</g>
<g clip-path="url(#clip3_406_1329)">
<path d="M304.14 10.5899L301.814 8.27369C300.872 7.33546 299.627 6.81901 298.295 6.82182L296.238 6.82615L292.575 6.83386L292.57 4.38541C292.568 3.30809 291.694 2.43828 290.617 2.44055L263.028 2.49866C262.313 2.50017 261.687 2.87365 261.335 3.4914C260.984 4.10916 260.996 4.84367 261.369 5.4501L262.244 6.88796L260.412 6.89181C259.002 6.89478 257.858 8.04307 257.861 9.45338C257.864 10.8637 259.013 12.0071 260.423 12.0042L263.048 11.9986C259.716 15.7665 257.895 20.5595 257.905 25.6425C257.914 29.991 259.255 34.1113 261.779 37.6024C261.036 37.9076 260.508 38.6433 260.51 39.4953L260.514 41.0525L259.289 41.0551C257.203 41.0595 255.522 42.7574 255.527 44.8337L255.529 46.1852C255.531 47.096 256.267 47.829 257.178 47.8271L290.82 47.7562L296.226 47.7449L299.781 47.7374C300.692 47.7355 301.425 46.9994 301.423 46.0885L301.42 44.737C301.416 42.6607 299.728 40.9699 297.642 40.9743L296.408 40.9769L296.405 39.4197C296.403 38.5677 295.872 37.8342 295.127 37.5322C297.647 34.0305 298.96 29.9045 298.951 25.5561C298.94 20.4829 297.099 15.6878 293.742 11.9438L298.256 11.9343L300.504 14.1723L300.529 26.1893C300.532 27.5996 301.681 28.7431 303.091 28.7401C304.501 28.7372 305.645 27.5889 305.642 26.1786L305.616 14.1028C305.604 12.7807 305.082 11.5282 304.14 10.5899ZM262.62 4.22324C262.659 4.1546 262.786 3.97804 263.031 3.97753L290.62 3.91941C290.884 3.91886 291.1 4.13387 291.101 4.3983L291.106 6.84675L288.677 6.85187L263.958 6.90393L262.631 4.70311C262.503 4.48792 262.581 4.29188 262.62 4.22324ZM297.655 42.4434C298.918 42.4407 299.958 43.4669 299.961 44.7401L299.964 46.0916C299.964 46.1896 299.886 46.2681 299.788 46.2683L296.233 46.2758L290.827 46.2872L257.175 46.358C257.077 46.3582 256.999 46.2801 256.999 46.1821L256.996 44.8306C256.993 43.5672 258.019 42.5269 259.292 42.5242L297.655 42.4434ZM261.983 41.0494L261.979 39.4922C261.979 39.1788 262.233 38.9236 262.546 38.923L294.376 38.8559C294.689 38.8553 294.945 39.1094 294.945 39.4228L294.949 40.98L261.983 41.0494ZM293.413 37.3889L263.503 37.4519L263.493 37.4421C261.814 35.3302 260.634 32.943 259.972 30.398L277.709 30.3606L296.914 30.3202C296.263 32.8679 295.083 35.2601 293.413 37.3889ZM297.492 25.5591C297.494 26.6756 297.399 27.7727 297.215 28.8504L270.576 28.9066L259.656 28.9296C259.467 27.8526 259.367 26.7559 259.365 25.6394C259.354 20.4781 261.381 15.6357 265.065 12.014L265.075 12.0042L291.744 11.948C291.763 11.9773 291.793 12.0067 291.822 12.036C295.473 15.6324 297.481 20.437 297.492 25.5591ZM303.078 27.2711C302.481 27.2723 301.99 26.7837 301.989 26.1863L301.963 14.1105C301.962 13.7481 301.825 13.4154 301.569 13.1613L299.243 10.8451C298.988 10.591 298.655 10.4546 298.293 10.4553L260.42 10.5351C259.822 10.5364 259.332 10.0477 259.33 9.45029C259.329 8.85286 259.818 8.36214 260.415 8.36088L288.67 8.30137L296.231 8.28544L298.288 8.28111C299.228 8.27913 300.101 8.63967 300.768 9.30424L303.094 11.6205C303.761 12.2851 304.126 13.1559 304.128 14.0961L304.153 26.1719C304.164 26.7791 303.675 27.2698 303.078 27.2711Z" fill="#4AA366"/>
<path d="M290.216 16.6233L287.346 16.6293C286.945 16.6302 286.612 16.9638 286.613 17.3654C286.614 17.7669 286.948 18.0992 287.349 18.0984L290.219 18.0923C290.62 18.0915 290.953 17.7578 290.952 17.3563C290.951 16.9547 290.617 16.6224 290.216 16.6233Z" fill="#4AA366"/>
<path d="M290.224 20.3839L289.166 20.3861C288.764 20.387 288.432 20.7207 288.433 21.1222C288.434 21.5238 288.767 21.8561 289.169 21.8552L290.227 21.853C290.628 21.8521 290.961 21.5185 290.96 21.1169C290.959 20.7154 290.625 20.3831 290.224 20.3839Z" fill="#4AA366"/>
<path d="M290.232 24.135L287.362 24.141C286.96 24.1419 286.628 24.4756 286.629 24.8771C286.63 25.2787 286.964 25.6109 287.365 25.6101L290.235 25.6041C290.636 25.6032 290.968 25.2695 290.968 24.868C290.967 24.4664 290.633 24.1341 290.232 24.135Z" fill="#4AA366"/>
</g>
</g>
<g opacity="0.2">
<g clip-path="url(#clip4_406_1329)">
<path d="M49.4251 356.573L46.1441 356.58L46.1176 343.975C47.7622 343.639 49.003 342.177 48.9993 340.433C48.9951 338.445 47.3757 336.833 45.3876 336.837L43.8989 336.84L34.5459 336.86C36.7839 334.612 37.5699 331.144 36.6516 327.58C36.4936 326.983 36.0225 326.514 35.4248 326.359C31.8579 325.446 28.3926 326.246 26.1545 328.494C25.529 329.122 25.0115 329.848 24.6214 330.632C23.5127 329.675 22.1012 329.139 20.6126 329.142C20.2208 329.143 19.8389 329.183 19.4669 329.252C18.9942 328.029 18.1393 326.679 16.6291 325.752C16.2859 325.537 15.8356 325.646 15.6209 325.999C15.4061 326.342 15.5148 326.793 15.8678 327.007C17.0054 327.7 17.6736 328.747 18.0575 329.706C15.9637 330.68 14.5089 332.808 14.5141 335.266C14.5153 335.825 14.5948 336.373 14.7428 336.901L6.17322 336.919C4.18508 336.924 2.57251 338.543 2.57669 340.531C2.58037 342.274 3.82725 343.731 5.47331 344.061L5.49984 356.655L2.21892 356.662C1.40603 356.664 0.751228 357.322 0.752941 358.135L0.757108 360.113C0.760821 361.876 2.19373 363.303 3.95661 363.299L4.81847 363.297L4.8227 365.305C4.82478 366.294 5.62956 367.095 6.61874 367.093L45.079 367.012C46.0682 367.01 46.8696 366.205 46.8675 365.216L46.8633 363.209L47.7251 363.207C49.488 363.203 50.9149 361.77 50.9112 360.007L50.907 358.029C50.8955 357.226 50.238 356.571 49.4251 356.573ZM27.1949 329.54C29.0909 327.636 31.9591 326.993 35.0654 327.78C35.1438 327.799 35.2125 327.868 35.2322 327.946C36.0321 331.049 35.4113 333.92 33.5153 335.824C33.1146 336.226 32.6746 336.57 32.1855 336.855C32.1757 336.855 32.1758 336.865 32.166 336.865L27.2005 336.875L28.774 335.295C29.3129 335.421 29.8615 335.489 30.41 335.487C30.6646 335.487 30.9192 335.477 31.1738 335.447C31.5753 335.397 31.8683 335.034 31.8185 334.632C31.7687 334.231 31.4057 333.938 31.0042 333.988C30.6811 334.028 30.3579 334.028 30.0445 334.009L30.8263 333.224C31.3653 333.35 31.9139 333.418 32.4623 333.417C32.717 333.416 32.9716 333.406 33.2262 333.376C33.6276 333.326 33.9206 332.963 33.8708 332.562C33.821 332.16 33.458 331.867 33.0566 331.917C32.7335 331.957 32.4103 331.957 32.0968 331.939L33.0937 330.937C33.3771 330.653 33.3761 330.183 33.0915 329.899C32.8069 329.616 32.3368 329.617 32.0534 329.902L31.0565 330.903C31.0362 330.579 31.0454 330.266 31.0741 329.943C31.1222 329.541 30.8276 329.179 30.426 329.131C30.0243 329.083 29.6626 329.378 29.6144 329.779C29.528 330.592 29.5787 331.395 29.7762 332.178L28.9943 332.964C28.9741 332.64 28.9832 332.327 29.0119 332.004C29.06 331.602 28.7655 331.24 28.3638 331.192C27.9622 331.144 27.6004 331.439 27.5523 331.84C27.4659 332.653 27.5165 333.456 27.714 334.24L25.2903 336.674C24.7751 333.874 25.4454 331.287 27.1949 329.54ZM18.4719 331.145C18.5908 331.771 18.6015 332.202 18.6015 332.222C18.6024 332.623 18.936 332.955 19.3376 332.955C19.7391 332.954 20.0714 332.62 20.0706 332.219C20.0704 332.15 20.0593 331.533 19.8813 330.681C20.1162 330.642 20.361 330.622 20.6059 330.621C21.9085 330.618 23.1436 331.164 24.0271 332.122C23.609 333.582 23.5341 335.198 23.8413 336.892L16.2804 336.908C16.0835 336.389 15.9844 335.841 15.9832 335.273C15.9794 333.481 16.9947 331.921 18.4719 331.145ZM4.04578 340.538C4.04331 339.363 5.00108 338.401 6.17634 338.398L41.6691 338.324L45.3809 338.316C46.5562 338.313 47.518 339.271 47.5205 340.446C47.5229 341.622 46.5652 342.583 45.3899 342.586L38.5734 342.6C36.6832 342.604 35.139 344.145 35.143 346.045L35.1545 351.5C35.1569 352.607 34.2577 353.5 33.1608 353.502C32.0639 353.505 31.161 352.606 31.1587 351.509L31.1472 346.044C31.1432 344.153 29.6023 342.609 27.7023 342.613C25.8121 342.617 24.2679 344.158 24.2719 346.058L24.2765 348.252C24.2786 349.251 23.4675 350.066 22.4685 350.068C21.4695 350.07 20.6549 349.259 20.6528 348.26L20.6482 346.066C20.6442 344.176 19.1033 342.631 17.2033 342.635L6.18531 342.659C5.01007 342.671 4.04826 341.713 4.04578 340.538ZM28.7112 356.616L6.96893 356.662L6.95181 348.533L19.2039 348.508C19.325 350.202 20.7479 351.55 22.4814 351.547C24.2149 351.543 25.6322 350.198 25.7461 348.494L29.6832 348.485L29.6896 351.502C29.6936 353.412 31.2541 354.966 33.1639 354.962C35.0737 354.958 36.6276 353.397 36.6236 351.487L36.6172 348.471L44.6482 348.454L44.6653 356.583L28.7112 356.616ZM6.94872 347.064L6.94255 344.136L17.2162 344.114C18.3034 344.112 19.1867 344.992 19.1889 346.079L19.191 347.038L6.94872 347.064ZM25.7528 347.025L25.7508 346.055C25.7485 344.968 26.6281 344.085 27.7152 344.082C28.8023 344.08 29.6856 344.96 29.6879 346.047L29.6899 347.007L25.7528 347.015L25.7528 347.025ZM36.6239 347.002L36.6219 346.032C36.6196 344.945 37.4992 344.062 38.5863 344.059L44.6487 344.047L44.6548 346.975L36.6239 346.992L36.6239 347.002ZM45.3984 365.229C45.3988 365.405 45.2522 365.553 45.0759 365.553L6.60587 365.634C6.42958 365.634 6.28236 365.488 6.28199 365.312L6.27776 363.304L40.0566 363.233L42.8184 363.227L45.3844 363.222L45.3886 365.229L45.3984 365.229ZM49.4323 360.02C49.4343 360.97 48.6622 361.746 47.7122 361.748L42.8251 361.758L40.0633 361.764L3.95354 361.84C3.00354 361.842 2.2282 361.07 2.2262 360.12L2.22201 358.131L24.1797 358.085L49.4183 358.032L49.4225 360.02L49.4323 360.02Z" fill="#4AA366"/>
<path d="M9.88324 350.104L9.87345 350.104C9.47191 350.105 9.13962 350.438 9.14046 350.84C9.14131 351.242 9.475 351.574 9.87655 351.573L9.88634 351.573C10.2879 351.572 10.6202 351.238 10.6193 350.837C10.6185 350.426 10.2848 350.103 9.88324 350.104Z" fill="#4AA366"/>
<path d="M12.0615 351.852L12.0517 351.852C11.6501 351.853 11.3178 352.187 11.3187 352.589C11.3195 352.99 11.6532 353.322 12.0548 353.322L12.0646 353.322C12.4661 353.321 12.7984 352.987 12.7975 352.585C12.7967 352.174 12.4728 351.852 12.0615 351.852Z" fill="#4AA366"/>
<path d="M40.7036 349.589L40.6938 349.589C40.2922 349.59 39.9599 349.923 39.9608 350.325C39.9616 350.726 40.2953 351.059 40.6969 351.058L40.7067 351.058C41.1082 351.057 41.4405 350.723 41.4396 350.322C41.4388 349.92 41.1051 349.588 40.7036 349.589Z" fill="#4AA366"/>
</g>
<g clip-path="url(#clip5_406_1329)">
<path d="M135.055 359.409C135.435 358.478 135.629 357.43 135.627 356.342C135.623 354.658 135.14 353.063 134.266 351.86C133.804 351.224 133.274 350.736 132.676 350.404L132.654 339.905C132.652 338.877 131.808 338.036 130.779 338.038L128.008 338.044L97.6078 338.108C96.5794 338.11 95.7389 338.954 95.7411 339.983L95.743 340.874L91.9822 340.882C88.6033 340.889 85.8668 343.637 85.8739 347.016L85.8792 349.533C85.8864 352.912 88.6344 355.648 92.0133 355.641L95.7741 355.633L95.7749 356.015C95.7774 357.22 96.1031 358.394 96.7027 359.421L93.8527 359.427C93.0692 359.429 92.4339 360.067 92.4356 360.85L92.4394 362.682C92.4429 364.337 93.7973 365.686 95.4525 365.682L113.453 365.644L116.999 365.637L133.041 365.603C134.696 365.6 136.045 364.245 136.041 362.59L136.038 360.759C136.046 360.132 135.634 359.594 135.055 359.409ZM131.474 351.464C133.003 351.951 134.153 353.956 134.158 356.336C134.16 357.413 133.917 358.471 133.469 359.334L131.49 359.338L131.474 351.464ZM97.2102 339.98C97.2097 339.754 97.3856 339.578 97.6109 339.577L124.955 339.52L130.782 339.507C131.008 339.507 131.184 339.683 131.185 339.908L131.206 349.907C131.049 349.888 130.892 349.879 130.736 349.879C128.875 349.883 127.232 351.238 126.414 353.355C125.325 352.329 124.021 351.656 122.708 351.453C121.239 351.221 119.937 351.586 119.047 352.489C118.148 353.392 117.789 354.696 118.027 356.154C118.205 357.28 118.737 358.396 119.522 359.373L98.5047 359.418C97.6996 358.469 97.2466 357.256 97.244 356.012L97.2367 352.555L97.2102 339.98V339.98ZM127.543 354.675C127.941 353.058 128.889 351.851 130.014 351.477L130.031 359.351L128.601 359.354C128.96 357.924 128.565 356.191 127.543 354.675ZM120.704 353.103C122.015 352.503 124.044 353.066 125.545 354.562C127.007 356.018 127.629 358.034 127.044 359.357L126.985 359.358L120.704 353.103ZM124.909 359.362L121.579 359.369C121.432 359.242 121.285 359.115 121.147 358.978C120.244 358.079 119.654 356.993 119.476 355.926C119.367 355.25 119.434 354.643 119.658 354.143L124.909 359.362ZM95.7617 349.747C95.7617 349.747 95.7617 349.757 95.7617 349.747L95.765 351.314L92.0042 351.322C91.0052 351.324 90.1906 350.513 90.1885 349.514L90.1832 346.997C90.1811 345.998 90.9923 345.183 91.9912 345.181L95.752 345.173L95.7617 349.747ZM95.771 354.164L92.0102 354.172C89.4442 354.177 87.3537 352.096 87.3483 349.53L87.343 347.013C87.3376 344.447 89.4193 342.356 91.9853 342.351L95.7461 342.343L95.749 343.714L91.9882 343.722C90.1763 343.726 88.7103 345.198 88.7141 347.01L88.7194 349.527C88.7233 351.339 90.1954 352.805 92.0073 352.801L95.7681 352.793L95.771 354.164ZM134.582 362.593C134.584 363.445 133.9 364.132 133.048 364.134L117.006 364.168L113.46 364.175L95.4592 364.213C94.6071 364.215 93.9201 363.531 93.9183 362.679L93.9145 360.896L134.578 360.811L134.582 362.593Z" fill="#4AA366"/>
<path d="M108.563 336.224C108.749 336.224 108.935 336.155 109.082 336.008C109.365 335.723 109.364 335.253 109.08 334.97C108.942 334.833 108.864 334.657 108.863 334.461C108.863 334.265 108.941 334.088 109.077 333.951L113.016 329.996C113.866 329.142 113.863 327.751 113.01 326.891C112.725 326.608 112.255 326.609 111.971 326.893C111.688 327.178 111.689 327.648 111.974 327.931C112.258 328.215 112.259 328.675 111.976 328.95L108.037 332.905C107.187 333.759 107.19 335.15 108.044 336.01C108.181 336.156 108.367 336.225 108.563 336.224Z" fill="#4AA366"/>
<path d="M117.136 328.439C117.137 328.635 117.059 328.812 116.922 328.949L112.983 332.904C112.133 333.758 112.136 335.149 112.99 336.009C113.137 336.155 113.323 336.224 113.509 336.223C113.695 336.223 113.881 336.154 114.028 336.007C114.311 335.722 114.31 335.252 114.026 334.969C113.741 334.685 113.74 334.225 114.024 333.95L117.962 329.985C118.373 329.573 118.606 329.024 118.605 328.436C118.604 327.849 118.378 327.301 117.956 326.89C117.671 326.607 117.201 326.608 116.917 326.892C116.634 327.177 116.635 327.647 116.92 327.93C117.057 328.067 117.136 328.243 117.136 328.439Z" fill="#4AA366"/>
<path d="M121.877 328.939L117.939 332.894C117.088 333.748 117.091 335.139 117.945 335.999C118.093 336.145 118.279 336.213 118.465 336.213C118.651 336.213 118.837 336.144 118.983 335.996C119.267 335.712 119.266 335.242 118.981 334.958C118.697 334.675 118.696 334.215 118.979 333.94L122.918 329.985C123.768 329.131 123.765 327.74 122.911 326.88C122.627 326.596 122.156 326.597 121.873 326.882C121.59 327.167 121.591 327.637 121.875 327.92C122.16 328.194 122.161 328.654 121.877 328.939Z" fill="#4AA366"/>
</g>
<g clip-path="url(#clip6_406_1329)">
<path d="M194.396 333.026C194.759 333.201 195.199 333.044 195.375 332.671C195.96 331.416 197.241 330.601 198.632 330.598C200.512 330.594 202.092 332.06 202.223 333.93C202.244 334.273 202.499 334.546 202.842 334.605C203.479 334.711 204.067 335.004 204.538 335.453C204.685 335.59 204.862 335.658 205.048 335.658C205.244 335.657 205.43 335.578 205.576 335.431C205.86 335.137 205.849 334.677 205.554 334.393C205.005 333.865 204.338 333.485 203.613 333.271C203.177 330.902 201.077 329.124 198.619 329.129C196.67 329.133 194.87 330.283 194.042 332.047C193.876 332.42 194.034 332.86 194.396 333.026Z" fill="#4AA366"/>
<path d="M219.771 360.131L216.921 360.137C217.516 359.107 217.846 357.931 217.844 356.727L217.842 355.992L217.836 353.22L217.81 340.694C217.808 339.666 216.964 338.825 215.935 338.827L215.436 338.829C214.682 334.462 211.101 331.061 206.702 330.542C205.08 327.48 201.863 325.528 198.376 325.535C193.656 325.545 189.677 329.099 189.08 333.723C186.368 334.355 184.12 336.289 183.077 338.897L182.754 338.897C181.726 338.9 180.885 339.744 180.887 340.772L180.889 341.663L177.128 341.671C173.75 341.668 171.013 344.426 171.02 347.795L171.025 350.312C171.033 353.691 173.781 356.428 177.159 356.421L180.92 356.413L180.921 356.795C180.924 357.999 181.249 359.174 181.849 360.201L178.999 360.207C178.215 360.209 177.58 360.846 177.582 361.63L177.586 363.461C177.589 365.117 178.944 366.465 180.599 366.462L218.187 366.383C219.842 366.379 221.191 365.025 221.188 363.37L221.184 361.538C221.192 360.764 220.554 360.129 219.771 360.131ZM180.911 352.103L177.15 352.111C176.151 352.113 175.337 351.302 175.335 350.303L175.329 347.786C175.327 346.787 176.138 345.973 177.137 345.971L180.898 345.963L180.911 352.103ZM180.895 344.503L177.134 344.511C175.323 344.515 173.857 345.987 173.86 347.799L173.866 350.316C173.869 352.128 175.342 353.594 177.154 353.59L180.914 353.582L180.917 354.953L177.156 354.961C174.59 354.967 172.5 352.885 172.495 350.319L172.489 347.802C172.484 345.236 174.566 343.146 177.132 343.14L180.892 343.132L180.895 344.503ZM216.367 353.224L216.373 355.995L216.375 356.73C216.377 357.944 215.959 359.12 215.197 360.062C215.177 360.092 215.158 360.111 215.138 360.141L199.017 360.175L192.514 360.188L183.641 360.207C182.836 359.259 182.383 358.045 182.38 356.801L182.358 346.195L216.343 346.123L216.358 353.224L216.367 353.224ZM189.886 335.053C190.219 334.994 190.473 334.719 190.501 334.376C190.786 330.252 194.247 327.003 198.389 326.994C201.445 326.988 204.26 328.774 205.568 331.533C205.676 331.768 205.912 331.934 206.176 331.953C210.006 332.239 213.195 335.092 213.947 338.812L202.684 338.836L194.046 338.854L184.693 338.874C185.698 336.874 187.624 335.43 189.886 335.053ZM182.356 340.769C182.356 340.544 182.532 340.367 182.757 340.366L194.049 340.343L202.688 340.324L215.939 340.297C216.164 340.296 216.34 340.472 216.341 340.697L216.349 344.664L182.365 344.735L182.356 340.769V340.769ZM219.728 363.382C219.73 364.235 219.046 364.922 218.194 364.923L180.605 365.003C179.753 365.004 179.066 364.32 179.065 363.468L179.061 361.686L192.527 361.657L199.03 361.644L219.725 361.6L219.728 363.382Z" fill="#4AA366"/>
</g>
<g clip-path="url(#clip7_406_1329)">
<path d="M304.815 331.275L302.489 328.959C301.547 328.021 300.302 327.505 298.97 327.507L296.913 327.512L293.251 327.519L293.245 325.071C293.243 323.994 292.37 323.124 291.292 323.126L263.703 323.184C262.988 323.186 262.362 323.559 262.011 324.177C261.66 324.795 261.671 325.529 262.044 326.136L262.919 327.574L261.088 327.577C259.677 327.58 258.534 328.729 258.537 330.139C258.54 331.549 259.688 332.693 261.099 332.69L263.723 332.684C260.391 336.452 258.57 341.245 258.581 346.328C258.59 350.677 259.931 354.797 262.455 358.288C261.711 358.593 261.184 359.329 261.186 360.181L261.189 361.738L259.965 361.741C257.879 361.745 256.198 363.443 256.202 365.519L256.205 366.871C256.207 367.782 256.943 368.515 257.854 368.513L291.496 368.442L296.902 368.43L300.457 368.423C301.368 368.421 302.101 367.685 302.099 366.774L302.096 365.423C302.092 363.346 300.403 361.655 298.317 361.66L297.083 361.662L297.08 360.105C297.078 359.253 296.548 358.52 295.803 358.218C298.322 354.716 299.636 350.59 299.627 346.242C299.616 341.168 297.774 336.373 294.417 332.629L298.932 332.62L301.179 334.858L301.205 346.875C301.208 348.285 302.356 349.429 303.766 349.426C305.177 349.423 306.32 348.274 306.317 346.864L306.292 334.788C306.279 333.466 305.757 332.214 304.815 331.275ZM263.296 324.909C263.335 324.84 263.462 324.664 263.706 324.663L291.295 324.605C291.56 324.604 291.776 324.819 291.776 325.084L291.782 327.532L289.353 327.537L264.633 327.589L263.306 325.389C263.179 325.173 263.256 324.977 263.296 324.909ZM298.33 363.129C299.594 363.126 300.634 364.152 300.637 365.426L300.64 366.777C300.64 366.875 300.562 366.954 300.464 366.954L296.908 366.961L291.502 366.973L257.851 367.044C257.753 367.044 257.674 366.966 257.674 366.868L257.671 365.516C257.669 364.253 258.695 363.212 259.968 363.21L298.33 363.129ZM262.658 361.735L262.655 360.178C262.654 359.864 262.908 359.609 263.222 359.609L295.052 359.541C295.365 359.541 295.62 359.795 295.621 360.108L295.624 361.666L262.658 361.735ZM294.089 358.074L264.178 358.137L264.169 358.128C262.489 356.016 261.309 353.629 260.648 351.084L278.384 351.046L297.59 351.006C296.939 353.553 295.759 355.946 294.089 358.074ZM298.167 346.245C298.17 347.361 298.074 348.458 297.89 349.536L271.251 349.592L260.331 349.615C260.143 348.538 260.042 347.441 260.04 346.325C260.029 341.164 262.056 336.321 265.741 332.7L265.751 332.69L292.419 332.634C292.439 332.663 292.468 332.692 292.498 332.722C296.149 336.318 298.157 341.123 298.167 346.245ZM303.753 347.957C303.156 347.958 302.665 347.469 302.664 346.872L302.639 334.796C302.638 334.434 302.5 334.101 302.245 333.847L299.919 331.531C299.664 331.277 299.33 331.14 298.968 331.141L261.095 331.221C260.498 331.222 260.007 330.733 260.006 330.136C260.005 329.538 260.493 329.048 261.091 329.046L289.346 328.987L296.907 328.971L298.963 328.967C299.904 328.965 300.776 329.325 301.443 329.99L303.769 332.306C304.437 332.971 304.801 333.841 304.803 334.782L304.828 346.857C304.84 347.465 304.351 347.955 303.753 347.957Z" fill="#4AA366"/>
<path d="M290.891 337.309L288.022 337.315C287.62 337.316 287.288 337.649 287.289 338.051C287.29 338.452 287.623 338.785 288.025 338.784L290.894 338.778C291.296 338.777 291.628 338.443 291.627 338.042C291.626 337.64 291.293 337.308 290.891 337.309Z" fill="#4AA366"/>
<path d="M290.899 341.069L289.841 341.072C289.44 341.073 289.108 341.406 289.108 341.808C289.109 342.209 289.443 342.542 289.845 342.541L290.902 342.539C291.304 342.538 291.636 342.204 291.635 341.802C291.634 341.401 291.301 341.069 290.899 341.069Z" fill="#4AA366"/>
<path d="M290.907 344.821L288.038 344.827C287.636 344.827 287.304 345.161 287.305 345.563C287.305 345.964 287.639 346.296 288.041 346.296L290.91 346.29C291.312 346.289 291.644 345.955 291.643 345.554C291.642 345.152 291.309 344.82 290.907 344.821Z" fill="#4AA366"/>
</g>
</g>
<g opacity="0.2">
<g clip-path="url(#clip8_406_1329)">
<path d="M94.239 258.142L92.7993 258.145L92.7904 253.934C92.7894 253.435 92.5631 252.955 92.1707 252.643C91.7783 252.32 91.2687 252.194 90.7793 252.303L78.0429 254.886L72.0981 254.898C71.1774 254.9 70.4249 255.656 70.4268 256.577L70.4303 258.193L68.9906 258.196C68.1189 258.197 67.4152 258.904 67.4171 259.776L67.4237 262.9C67.4254 263.742 68.083 264.417 68.9058 264.464L69.0353 265.472C69.0256 265.531 69.0257 265.58 69.0356 265.639L72.1518 289.725C72.2514 290.499 72.8795 291.095 73.6436 291.181L73.6452 291.965C73.6472 292.885 74.4029 293.638 75.3235 293.636L88.0554 293.609C88.976 293.607 89.7286 292.851 89.7266 291.931L89.725 291.147C90.4887 291.067 91.1143 290.469 91.2106 289.685L92.1736 281.926C92.1736 281.916 92.1736 281.916 92.1736 281.907L94.3403 264.41C95.1629 264.36 95.8177 263.673 95.8159 262.84L95.8093 259.716C95.8173 258.854 95.1008 258.141 94.239 258.142ZM71.8959 256.564C71.8957 256.446 71.9836 256.358 72.1011 256.358L78.1145 256.345C78.1635 256.345 78.2125 256.345 78.2614 256.335L85.3296 254.9L85.3316 255.879C85.3325 256.281 85.6662 256.613 86.0677 256.612C86.4692 256.611 86.8015 256.278 86.8007 255.876L86.798 254.603L88.1784 254.326L88.18 255.09C88.1808 255.491 88.5145 255.823 88.916 255.823C89.3176 255.822 89.6499 255.488 89.649 255.087L89.6468 254.029L91.0761 253.742C91.1544 253.722 91.223 253.761 91.2427 253.781C91.2721 253.8 91.3212 253.859 91.3214 253.937L91.3302 258.148L71.8993 258.189L71.8959 256.564ZM88.2576 291.934C88.2578 292.051 88.1699 292.14 88.0523 292.14L75.3204 292.167C75.2029 292.167 75.1145 292.079 75.1143 291.962L75.1127 291.188L88.2461 291.16L88.2478 291.934L88.2576 291.934ZM91.1569 278.158C91.1569 278.167 91.157 278.177 91.157 278.187L89.7509 289.512C89.7413 289.61 89.6534 289.688 89.5456 289.688L73.8168 289.722C73.709 289.722 73.6305 289.644 73.6107 289.546L71.0121 269.395C71.012 269.346 71.0119 269.298 71.0118 269.239L70.4043 264.47L89.6981 264.43L92.4599 264.424L92.8713 264.423L91.1569 278.158ZM94.3566 262.843C94.3567 262.902 94.3079 262.951 94.2491 262.951L92.4471 262.955L89.6852 262.961L69.0007 263.004C68.9419 263.004 68.8929 262.956 68.8927 262.897L68.8862 259.773C68.886 259.714 68.9349 259.665 68.9937 259.665L94.2323 259.611C94.2911 259.611 94.3401 259.66 94.3402 259.719L94.3468 262.843L94.3566 262.843Z" fill="#4AA366"/>
<path d="M81.6409 270.558C78.2621 270.565 75.5158 273.323 75.5229 276.702C75.53 280.081 78.2879 282.827 81.6668 282.82C85.0456 282.813 87.7919 280.055 87.7848 276.676C87.7776 273.287 85.0198 270.551 81.6409 270.558ZM81.6636 281.341C79.0977 281.346 76.9974 279.265 76.992 276.689C76.9866 274.123 79.0682 272.023 81.644 272.017C84.21 272.012 86.3102 274.093 86.3157 276.669C86.3211 279.245 84.2296 281.335 81.6636 281.341Z" fill="#4AA366"/>
<path d="M79.7599 274.91C78.4112 276.265 78.1802 278.155 79.2401 279.211C79.6916 279.66 80.2797 279.875 80.9261 279.873C81.7977 279.871 82.7664 279.458 83.5483 278.683C84.164 278.064 84.564 277.309 84.6897 276.535C84.825 275.693 84.5981 274.91 84.0681 274.382C82.9983 273.317 81.1086 273.556 79.7599 274.91ZM80.0687 277.348C80.1265 276.898 80.38 276.368 80.8003 275.946C81.2205 275.524 81.7488 275.259 82.1992 275.199L80.0687 277.348ZM82.508 277.647C82.0877 278.069 81.5594 278.334 81.109 278.384L83.2396 276.245C83.1817 276.695 82.9282 277.225 82.508 277.647Z" fill="#4AA366"/>
<path d="M82.571 284.385L80.7592 284.389C80.3576 284.389 80.0254 284.723 80.0262 285.125C80.0271 285.526 80.3607 285.859 80.7623 285.858L82.5741 285.854C82.9757 285.853 83.308 285.519 83.3071 285.118C83.3063 284.716 82.9824 284.384 82.571 284.385Z" fill="#4AA366"/>
<path d="M80.7364 268.944L82.5483 268.94C82.9498 268.939 83.2821 268.605 83.2812 268.204C83.2804 267.802 82.9467 267.47 82.5452 267.471L80.7333 267.475C80.3318 267.475 79.9995 267.809 80.0003 268.211C80.0012 268.622 80.3251 268.944 80.7364 268.944Z" fill="#4AA366"/>
<path d="M75.6468 251.894C75.8329 251.894 76.0189 251.825 76.1655 251.677C76.4489 251.393 76.4479 250.923 76.1633 250.639C75.9572 250.434 75.9565 250.111 76.1617 249.905L79.5432 246.509C80.3153 245.734 80.3127 244.47 79.5373 243.698C79.2527 243.415 78.7826 243.416 78.4992 243.7C78.2158 243.985 78.2167 244.455 78.5014 244.738C78.7075 244.944 78.7081 245.267 78.5029 245.473L75.1214 248.869C74.3493 249.644 74.352 250.907 75.1273 251.68C75.2745 251.816 75.4608 251.894 75.6468 251.894Z" fill="#4AA366"/>
<path d="M82.7632 245.464L79.3816 248.859C78.6096 249.635 78.6122 250.898 79.3876 251.67C79.5348 251.817 79.721 251.885 79.9071 251.885C80.0932 251.884 80.2791 251.815 80.4257 251.668C80.7091 251.383 80.7081 250.913 80.4235 250.63C80.2174 250.425 80.2167 250.102 80.422 249.895L83.8035 246.5C84.1749 246.127 84.3795 245.627 84.3784 245.098C84.3773 244.569 84.1705 244.06 83.7976 243.689C83.513 243.405 83.0428 243.406 82.7594 243.691C82.476 243.976 82.477 244.446 82.7616 244.729C82.9677 244.934 82.9684 245.258 82.7632 245.464Z" fill="#4AA366"/>
<path d="M87.0237 245.454L83.6421 248.85C82.8701 249.626 82.8727 250.889 83.6481 251.661C83.7953 251.808 83.9815 251.876 84.1676 251.875C84.3537 251.875 84.5396 251.806 84.6862 251.659C84.9696 251.374 84.9686 250.904 84.684 250.621C84.4779 250.415 84.4772 250.092 84.6825 249.886L88.064 246.49C88.8361 245.715 88.8334 244.452 88.0581 243.68C87.7734 243.396 87.3033 243.397 87.0199 243.682C86.7365 243.966 86.7375 244.436 87.0221 244.72C87.2184 244.925 87.2191 245.248 87.0237 245.454Z" fill="#4AA366"/>
</g>
<g clip-path="url(#clip9_406_1329)">
<path d="M190.892 281.611C191.272 280.68 191.465 279.631 191.463 278.544C191.459 276.86 190.976 275.264 190.102 274.061C189.64 273.426 189.11 272.937 188.512 272.605L188.49 262.107C188.488 261.078 187.644 260.238 186.616 260.24L183.844 260.246L153.444 260.31C152.416 260.312 151.575 261.156 151.577 262.184L151.579 263.076L147.818 263.083C144.439 263.091 141.703 265.839 141.71 269.217L141.715 271.734C141.723 275.113 144.471 277.85 147.849 277.843L151.61 277.835L151.611 278.217C151.614 279.421 151.939 280.596 152.539 281.623L149.689 281.629C148.905 281.631 148.27 282.269 148.272 283.052L148.276 284.884C148.279 286.539 149.633 287.887 151.289 287.884L169.29 287.846L172.835 287.839L188.877 287.805C190.532 287.801 191.881 286.447 191.878 284.792L191.874 282.96C191.882 282.333 191.47 281.796 190.892 281.611ZM187.31 273.666C188.839 274.152 189.989 276.158 189.994 278.537C189.996 279.615 189.753 280.673 189.305 281.536L187.326 281.54L187.31 273.666ZM153.046 262.181C153.046 261.956 153.222 261.779 153.447 261.779L180.791 261.721L186.619 261.709C186.844 261.708 187.021 261.884 187.021 262.11L187.042 272.109C186.885 272.09 186.729 272.08 186.572 272.081C184.711 272.085 183.069 273.44 182.25 275.557C181.161 274.531 179.857 273.858 178.544 273.655C177.075 273.423 175.773 273.788 174.884 274.691C173.984 275.594 173.625 276.897 173.863 278.356C174.042 279.482 174.573 280.597 175.358 281.575L154.341 281.619C153.536 280.671 153.083 279.457 153.08 278.214L153.073 274.756L153.046 262.181V262.181ZM183.379 276.877C183.778 275.26 184.725 274.053 185.851 273.679L185.867 281.553L184.437 281.556C184.797 280.125 184.401 278.393 183.379 276.877ZM176.54 275.304C177.851 274.704 179.88 275.268 181.381 276.763C182.844 278.22 183.465 280.236 182.88 281.559L182.821 281.559L176.54 275.304ZM180.745 281.564L177.415 281.571C177.268 281.444 177.121 281.317 176.983 281.18C176.08 280.281 175.491 279.195 175.312 278.128C175.203 277.452 175.27 276.845 175.494 276.345L180.745 281.564ZM151.598 271.949C151.598 271.949 151.598 271.958 151.598 271.949L151.601 273.516L147.84 273.524C146.841 273.526 146.027 272.715 146.025 271.716L146.019 269.199C146.017 268.2 146.828 267.385 147.827 267.383L151.588 267.375L151.598 271.949ZM151.607 276.366L147.846 276.374C145.28 276.379 143.19 274.297 143.184 271.731L143.179 269.214C143.174 266.648 145.255 264.558 147.821 264.553L151.582 264.545L151.585 265.916L147.824 265.924C146.012 265.927 144.547 267.4 144.55 269.211L144.556 271.728C144.559 273.54 146.032 275.006 147.843 275.002L151.604 274.995L151.607 276.366ZM190.418 284.795C190.42 285.647 189.736 286.334 188.884 286.336L172.842 286.369L169.296 286.377L151.295 286.415C150.443 286.417 149.756 285.733 149.754 284.88L149.751 283.098L190.415 283.012L190.418 284.795Z" fill="#4AA366"/>
<path d="M164.399 258.426C164.585 258.425 164.771 258.357 164.918 258.209C165.201 257.925 165.2 257.455 164.916 257.171C164.778 257.034 164.7 256.858 164.699 256.662C164.699 256.466 164.777 256.29 164.914 256.153L168.852 252.197C169.703 251.344 169.7 249.953 168.846 249.093C168.561 248.809 168.091 248.81 167.808 249.095C167.524 249.38 167.525 249.85 167.81 250.133C168.094 250.417 168.095 250.877 167.812 251.152L163.873 255.107C163.023 255.961 163.026 257.351 163.88 258.212C164.017 258.358 164.204 258.426 164.399 258.426Z" fill="#4AA366"/>
<path d="M172.972 250.641C172.973 250.837 172.895 251.013 172.758 251.151L168.819 255.106C167.969 255.96 167.972 257.35 168.826 258.211C168.973 258.357 169.159 258.425 169.345 258.425C169.532 258.425 169.717 258.356 169.864 258.208C170.147 257.924 170.146 257.454 169.862 257.17C169.577 256.887 169.576 256.426 169.86 256.152L173.798 252.187C174.209 251.774 174.443 251.225 174.441 250.638C174.44 250.05 174.214 249.502 173.792 249.092C173.507 248.808 173.037 248.809 172.754 249.094C172.47 249.379 172.471 249.849 172.756 250.132C172.893 250.269 172.972 250.445 172.972 250.641Z" fill="#4AA366"/>
<path d="M177.714 251.14L173.775 255.096C172.925 255.949 172.928 257.34 173.781 258.2C173.929 258.347 174.115 258.415 174.301 258.415C174.487 258.414 174.673 258.345 174.82 258.198C175.103 257.913 175.102 257.443 174.817 257.16C174.533 256.877 174.532 256.416 174.815 256.141L178.754 252.186C179.604 251.332 179.601 249.942 178.747 249.082C178.463 248.798 177.993 248.799 177.709 249.084C177.426 249.368 177.427 249.838 177.711 250.122C177.996 250.395 177.997 250.856 177.714 251.14Z" fill="#4AA366"/>
</g>
<g clip-path="url(#clip10_406_1329)">
<path d="M250.232 255.228C250.595 255.403 251.036 255.245 251.211 254.873C251.796 253.618 253.077 252.803 254.468 252.8C256.348 252.796 257.928 254.261 258.06 256.132C258.08 256.474 258.335 256.748 258.678 256.806C259.315 256.913 259.903 257.205 260.374 257.655C260.521 257.791 260.698 257.86 260.884 257.859C261.08 257.859 261.266 257.78 261.412 257.633C261.696 257.339 261.685 256.878 261.391 256.595C260.841 256.067 260.174 255.687 259.449 255.473C259.013 253.103 256.913 251.325 254.455 251.331C252.506 251.335 250.707 252.484 249.878 254.249C249.712 254.621 249.87 255.062 250.232 255.228Z" fill="#4AA366"/>
<path d="M275.607 282.332L272.757 282.338C273.352 281.309 273.682 280.133 273.68 278.928L273.678 278.194L273.673 275.422L273.646 262.896C273.644 261.867 272.8 261.027 271.772 261.029L271.272 261.03C270.519 256.664 266.937 253.263 262.538 252.743C260.916 249.681 257.699 247.729 254.213 247.737C249.492 247.747 245.513 251.3 244.916 255.924C242.204 256.557 239.956 258.491 238.913 261.098L238.59 261.099C237.562 261.101 236.721 261.945 236.724 262.974L236.725 263.865L232.965 263.873C229.586 263.87 226.849 266.628 226.856 269.997L226.862 272.514C226.869 275.893 229.617 278.629 232.996 278.622L236.756 278.614L236.757 278.996C236.76 280.201 237.085 281.375 237.685 282.403L234.835 282.409C234.052 282.41 233.416 283.048 233.418 283.832L233.422 285.663C233.425 287.318 234.78 288.667 236.435 288.663L274.023 288.584C275.679 288.581 277.027 287.226 277.024 285.571L277.02 283.74C277.028 282.966 276.39 282.331 275.607 282.332ZM236.747 274.305L232.987 274.313C231.988 274.315 231.173 273.504 231.171 272.505L231.166 269.988C231.164 268.989 231.975 268.174 232.974 268.172L236.734 268.164L236.747 274.305ZM236.731 266.705L232.971 266.713C231.159 266.717 229.693 268.189 229.697 270.001L229.702 272.518C229.706 274.33 231.178 275.796 232.99 275.792L236.751 275.784L236.753 277.155L232.993 277.163C230.427 277.168 228.336 275.087 228.331 272.521L228.325 270.004C228.32 267.438 230.402 265.347 232.968 265.342L236.729 265.334L236.731 266.705ZM272.203 275.425L272.209 278.197L272.211 278.931C272.213 280.146 271.795 281.322 271.033 282.264C271.013 282.293 270.994 282.313 270.974 282.342L254.854 282.376L248.351 282.39L239.477 282.409C238.672 281.46 238.219 280.247 238.217 279.003L238.194 268.396L272.179 268.325L272.194 275.425L272.203 275.425ZM245.722 257.255C246.055 257.195 246.309 256.92 246.337 256.578C246.623 252.454 250.083 249.205 254.225 249.196C257.281 249.19 260.096 250.976 261.404 253.735C261.512 253.97 261.748 254.136 262.012 254.155C265.842 254.441 269.031 257.294 269.783 261.014L258.521 261.037L249.882 261.056L240.529 261.075C241.534 259.075 243.46 257.632 245.722 257.255ZM238.193 262.971C238.192 262.745 238.368 262.569 238.593 262.568L249.886 262.544L258.524 262.526L271.775 262.498C272 262.498 272.177 262.674 272.177 262.899L272.185 266.865L238.201 266.937L238.193 262.971V262.971ZM275.565 285.584C275.566 286.436 274.882 287.123 274.03 287.125L236.442 287.204C235.59 287.206 234.903 286.522 234.901 285.67L234.897 283.887L248.363 283.859L254.867 283.845L275.561 283.802L275.565 285.584Z" fill="#4AA366"/>
</g>
<g clip-path="url(#clip11_406_1329)">
<path d="M360.651 253.477L358.325 251.161C357.383 250.223 356.138 249.706 354.806 249.709L352.75 249.713L349.087 249.721L349.082 247.273C349.079 246.195 348.206 245.325 347.129 245.328L319.539 245.386C318.824 245.387 318.198 245.761 317.847 246.379C317.496 246.996 317.507 247.731 317.881 248.337L318.755 249.775L316.924 249.779C315.514 249.782 314.37 250.93 314.373 252.341C314.376 253.751 315.524 254.894 316.935 254.891L319.559 254.886C316.228 258.654 314.406 263.447 314.417 268.53C314.426 272.878 315.767 276.999 318.291 280.49C317.547 280.795 317.02 281.53 317.022 282.383L317.025 283.94L315.801 283.942C313.715 283.947 312.034 285.645 312.038 287.721L312.041 289.072C312.043 289.983 312.779 290.716 313.69 290.714L347.332 290.643L352.738 290.632L356.293 290.625C357.204 290.623 357.937 289.887 357.935 288.976L357.932 287.624C357.928 285.548 356.24 283.857 354.154 283.862L352.92 283.864L352.916 282.307C352.914 281.455 352.384 280.721 351.639 280.419C354.159 276.918 355.472 272.792 355.463 268.443C355.452 263.37 353.611 258.575 350.253 254.831L354.768 254.821L357.016 257.06L357.041 269.077C357.044 270.487 358.192 271.63 359.603 271.627C361.013 271.624 362.156 270.476 362.153 269.066L362.128 256.99C362.115 255.668 361.594 254.415 360.651 253.477ZM319.132 247.11C319.171 247.042 319.298 246.865 319.543 246.865L347.132 246.807C347.396 246.806 347.612 247.021 347.613 247.286L347.618 249.734L345.189 249.739L320.469 249.791L319.143 247.59C319.015 247.375 319.093 247.179 319.132 247.11ZM354.166 285.331C355.43 285.328 356.47 286.354 356.473 287.627L356.476 288.979C356.476 289.077 356.398 289.155 356.3 289.155L352.745 289.163L347.338 289.174L313.687 289.245C313.589 289.245 313.51 289.167 313.51 289.069L313.507 287.718C313.505 286.454 314.531 285.414 315.804 285.411L354.166 285.331ZM318.494 283.937L318.491 282.379C318.49 282.066 318.744 281.811 319.058 281.81L350.888 281.743C351.201 281.742 351.456 281.997 351.457 282.31L351.46 283.867L318.494 283.937ZM349.925 280.276L320.015 280.339L320.005 280.329C318.326 278.217 317.145 275.83 316.484 273.285L334.22 273.248L353.426 273.207C352.775 275.755 351.595 278.147 349.925 280.276ZM354.004 268.446C354.006 269.563 353.91 270.66 353.726 271.738L327.087 271.794L316.167 271.817C315.979 270.74 315.879 269.643 315.876 268.527C315.865 263.365 317.892 258.523 321.577 254.901L321.587 254.891L348.255 254.835C348.275 254.865 348.304 254.894 348.334 254.923C351.985 258.52 353.993 263.324 354.004 268.446ZM359.59 270.158C358.992 270.16 358.502 269.671 358.5 269.073L358.475 256.998C358.474 256.635 358.336 256.303 358.081 256.049L355.755 253.732C355.5 253.478 355.167 253.342 354.804 253.343L316.932 253.422C316.334 253.424 315.843 252.935 315.842 252.337C315.841 251.74 316.33 251.249 316.927 251.248L345.182 251.189L352.743 251.173L354.8 251.168C355.74 251.166 356.612 251.527 357.28 252.191L359.606 254.508C360.273 255.172 360.637 256.043 360.639 256.983L360.665 269.059C360.676 269.666 360.187 270.157 359.59 270.158Z" fill="#4AA366"/>
<path d="M346.727 259.51L343.858 259.517C343.456 259.517 343.124 259.851 343.125 260.253C343.126 260.654 343.459 260.986 343.861 260.986L346.731 260.98C347.132 260.979 347.464 260.645 347.463 260.243C347.463 259.842 347.129 259.51 346.727 259.51Z" fill="#4AA366"/>
<path d="M346.735 263.271L345.678 263.273C345.276 263.274 344.944 263.608 344.945 264.009C344.946 264.411 345.279 264.743 345.681 264.742L346.738 264.74C347.14 264.739 347.472 264.406 347.471 264.004C347.471 263.603 347.137 263.27 346.735 263.271Z" fill="#4AA366"/>
<path d="M346.743 267.022L343.874 267.028C343.472 267.029 343.14 267.363 343.141 267.764C343.142 268.166 343.475 268.498 343.877 268.497L346.746 268.491C347.148 268.49 347.48 268.157 347.479 267.755C347.479 267.354 347.145 267.021 346.743 267.022Z" fill="#4AA366"/>
</g>
</g>
<g opacity="0.2">
<g clip-path="url(#clip12_406_1329)">
<path d="M92.5467 117.853L87.4148 117.864L89.4684 102.444C89.4781 102.405 89.4976 102.356 89.4975 102.307L90.7413 93.0298C90.8089 92.54 90.6609 92.0408 90.3271 91.6694C90.0031 91.2979 89.5326 91.0834 89.0331 91.0844L78.3481 91.107L70.1017 91.1243L61.4929 91.1425C60.9934 91.1435 60.5238 91.36 60.2014 91.7328C59.879 92.1057 59.7331 92.6054 59.7929 93.095L63.2339 117.915L58.0921 117.926C57.2792 117.928 56.6244 118.585 56.6261 119.398L56.6303 121.377C56.634 123.13 58.0669 124.556 59.82 124.553L60.6721 124.551L60.6763 126.549C60.6784 127.538 61.4831 128.34 62.4723 128.337L88.2006 128.283C89.1898 128.281 89.9912 127.476 89.9891 126.487L89.9849 124.489L90.837 124.487C92.5901 124.484 94.0169 123.051 94.0133 121.298L94.0091 119.319C94.0172 118.507 93.3498 117.852 92.5467 117.853ZM61.2518 92.8961C61.2418 92.7981 61.2808 92.7295 61.3101 92.7001C61.3395 92.6706 61.3981 92.6117 61.496 92.6115L70.1048 92.5934L78.3512 92.576L89.046 92.5535C89.1439 92.5533 89.2028 92.6021 89.2323 92.6413C89.2617 92.6706 89.301 92.739 89.2914 92.837L88.9346 95.4821L61.6099 95.5396L61.2518 92.8961ZM61.8187 96.9985L88.732 96.9418L88.4909 98.7248C88.4715 98.7738 88.4618 98.8228 88.4521 98.8718L85.9163 117.858L70.638 117.89L64.7127 117.902L61.8187 96.9985ZM88.5201 126.49C88.5204 126.667 88.3738 126.814 88.1975 126.814L62.4692 126.868C62.2929 126.869 62.1457 126.722 62.1453 126.546L62.1411 124.548L88.5158 124.492L88.5201 126.49ZM92.554 121.301C92.556 122.251 91.7839 123.016 90.8437 123.018L59.8267 123.084C58.8767 123.086 58.1112 122.314 58.1092 121.373L58.105 119.395L73.3246 119.363L92.5498 119.322L92.554 121.301V121.301Z" fill="#4AA366"/>
<path d="M67.7844 88.3475C67.9704 88.3471 68.1564 88.2782 68.303 88.131C68.5864 87.8464 68.5854 87.3762 68.3008 87.0928C67.9769 86.7703 67.9758 86.2317 68.2983 85.9078L72.5399 81.6483C73.439 80.7454 73.4359 79.2861 72.533 78.387C72.2484 78.1036 71.7783 78.1045 71.4948 78.3892C71.2114 78.6738 71.2124 79.1439 71.497 79.4273C71.8209 79.7498 71.822 80.2885 71.4995 80.6124L67.258 84.8718C66.3588 85.7747 66.3619 87.234 67.2648 88.1332C67.4121 88.2798 67.5983 88.3479 67.7844 88.3475Z" fill="#4AA366"/>
<path d="M77.0905 80.0037C77.091 80.2289 77.0033 80.4348 76.8469 80.5918L72.6054 84.8611C71.7063 85.764 71.7093 87.2233 72.6123 88.1224C72.7595 88.269 72.9457 88.3372 73.1318 88.3368C73.3179 88.3364 73.5038 88.2674 73.6504 88.1202C73.9338 87.8356 73.9328 87.3655 73.6482 87.0821C73.3243 86.7596 73.3232 86.2209 73.6457 85.897L77.8873 81.6376C78.7864 80.7346 78.7833 79.2754 77.8804 78.3762C77.5958 78.0928 77.1257 78.0938 76.8423 78.3784C76.5588 78.663 76.5598 79.1331 76.8444 79.4166C77.0015 79.5729 77.0901 79.7882 77.0905 80.0037Z" fill="#4AA366"/>
<path d="M82.438 79.9925C82.4384 80.2177 82.3507 80.4236 82.1944 80.5806L77.9528 84.8401C77.0537 85.743 77.0567 87.2023 77.9597 88.1014C78.1069 88.248 78.2931 88.3162 78.4792 88.3158C78.6653 88.3154 78.8512 88.2464 78.9978 88.0992C79.2812 87.8146 79.2802 87.3445 78.9956 87.0611C78.6717 86.7386 78.6706 86.1999 78.9931 85.876L83.2347 81.6166C84.1338 80.7136 84.1307 79.2544 83.2278 78.3552C82.9432 78.0718 82.4731 78.0728 82.1897 78.3574C81.9062 78.642 81.9072 79.1121 82.1919 79.3956C82.3489 79.5617 82.4375 79.777 82.438 79.9925Z" fill="#4AA366"/>
<path d="M70.396 114.668C70.4165 115.06 70.7403 115.363 71.132 115.362C71.1418 115.362 71.1614 115.362 71.1712 115.362C71.5727 115.341 71.8854 114.998 71.865 114.587L71.1413 101.171C71.1209 100.769 70.7775 100.456 70.3662 100.477C69.9647 100.497 69.652 100.841 69.6724 101.252L70.396 114.668Z" fill="#4AA366"/>
<path d="M79.4568 115.344C79.4666 115.344 79.4862 115.344 79.496 115.344C79.8878 115.344 80.2103 115.039 80.2291 114.647L80.8962 101.229C80.9149 100.827 80.6008 100.475 80.1992 100.456C79.7976 100.438 79.4457 100.752 79.4269 101.153L78.7598 114.572C78.7411 114.984 79.0552 115.326 79.4568 115.344Z" fill="#4AA366"/>
</g>
<g clip-path="url(#clip13_406_1329)">
<path d="M261.818 123.108C261.867 122.912 261.896 122.716 261.895 122.521C261.893 121.296 260.989 120.289 259.824 120.106L259.809 113.378L259.792 105.131L259.777 98.0796C259.775 97.2471 260.097 96.4629 260.674 95.8643L261.602 94.9123C261.964 94.5394 262.139 94.0396 262.079 93.5402C262.069 93.4325 262.049 93.3346 262.01 93.2367C262.646 92.9024 263.075 92.2355 263.074 91.4716C263.071 90.3747 262.168 89.4756 261.072 89.4779L257.458 89.4855C256.495 87.9695 255.17 86.6991 253.62 85.8111C252.483 85.1573 251.238 84.7094 249.945 84.4966L249.941 82.8317C249.941 82.3714 250.322 81.9886 250.782 81.9877C251.928 81.9852 252.856 81.1116 252.913 79.9852C252.941 79.4073 252.734 78.8593 252.332 78.439C251.939 78.0285 251.38 77.7946 250.812 77.7958L244.867 77.8084C243.722 77.8108 242.793 78.6844 242.737 79.8108C242.708 80.3887 242.915 80.9367 243.318 81.357C243.71 81.7675 244.269 82.0014 244.837 82.0002L244.876 82.0001C245.337 81.9991 245.719 82.3803 245.72 82.8406L245.724 84.5937C244.618 84.8409 243.541 85.2545 242.563 85.8246C241.018 86.7289 239.708 87.995 238.751 89.5053L237.116 89.5087C236.019 89.511 235.12 90.414 235.122 91.5109C235.124 92.3923 235.703 93.1452 236.507 93.408C236.488 93.5255 236.468 93.6333 236.469 93.7606L236.47 94.3874C233.955 95.2056 231.696 96.7578 230.094 98.7983C228.345 101.025 227.42 103.671 227.426 106.463C227.432 109.234 228.358 111.877 230.106 114.086C231.727 116.13 233.992 117.692 236.521 118.5L236.524 120.155C235.359 120.343 234.46 121.364 234.463 122.578C234.463 122.774 234.493 122.98 234.542 123.166C233.417 123.374 232.567 124.365 232.569 125.55C232.572 126.882 233.661 127.976 235.003 127.974L261.397 127.918C262.729 127.915 263.824 126.826 263.821 125.484C263.799 124.309 262.935 123.321 261.818 123.108ZM260.542 93.8862L259.614 94.8382C258.763 95.7116 258.296 96.8683 258.298 98.0827L258.313 105.134L258.331 113.381L258.339 117.249L250.308 117.266L250.264 96.278L255.454 96.267C256.404 96.265 257.167 95.4897 257.165 94.5495L257.162 93.4722L260.443 93.4653C260.463 93.475 260.473 93.4946 260.492 93.5044C260.551 93.5434 260.6 93.6217 260.601 93.7C260.62 93.7685 260.601 93.8273 260.542 93.8862ZM256.827 120.083L254.457 120.088L237.983 120.122L237.981 118.761L258.342 118.718L258.345 120.07L256.827 120.073L256.827 120.083ZM236.496 111.35L236.502 114.249C233.375 112.777 231.38 109.794 231.373 106.464C231.366 103.183 233.377 100.143 236.469 98.6576L236.496 111.35ZM237.965 111.347L237.928 93.7576C237.928 93.6694 237.967 93.6008 238.035 93.5517C238.055 93.5418 238.074 93.5222 238.094 93.5124L239.044 93.5104L239.046 94.5877C239.048 95.5377 239.823 96.3 240.764 96.298L245.964 96.287L246.008 117.275L237.968 117.292L237.966 116.567L237.955 111.347L237.965 111.347ZM240.77 94.8289C240.633 94.8292 240.525 94.7217 240.525 94.5846L240.523 93.5072L255.713 93.4752L255.715 94.5526C255.715 94.6897 255.608 94.7976 255.471 94.7979L240.77 94.8289ZM248.795 96.2811L248.839 117.269L247.487 117.272L247.443 96.2839L248.795 96.2811ZM244.863 80.531L244.824 80.5311C244.648 80.5315 244.491 80.4633 244.373 80.3362C244.256 80.2091 244.196 80.0428 244.196 79.8763C244.215 79.553 244.508 79.2782 244.861 79.2774L250.806 79.2649C250.982 79.2645 251.139 79.3328 251.257 79.4598C251.374 79.5869 251.433 79.7533 251.434 79.9198C251.415 80.243 251.122 80.5179 250.769 80.5186C249.496 80.5213 248.46 81.5616 248.463 82.8348L248.466 84.3431C248.338 84.3433 248.211 84.3338 248.084 84.3341C247.78 84.3347 247.477 84.3451 247.183 84.3751L247.18 82.8375C247.177 81.5643 246.137 80.5284 244.863 80.531ZM248.097 85.8031C251.103 85.7968 253.858 87.1523 255.675 89.4794L240.534 89.5113C242.341 87.206 245.139 85.8094 248.097 85.8031ZM237.109 90.9876L261.075 90.9371C261.368 90.9365 261.604 91.1711 261.605 91.4649C261.605 91.7587 261.371 91.9943 261.077 91.9949L237.111 92.0454C236.818 92.046 236.582 91.8114 236.581 91.5176C236.581 91.2238 236.815 90.9882 237.109 90.9876ZM228.876 106.46C228.866 101.817 231.942 97.5996 236.454 95.9447L236.456 97.0416C234.597 97.7898 233.003 99.0174 231.831 100.607C230.561 102.333 229.89 104.352 229.894 106.458C229.899 108.553 230.569 110.57 231.836 112.281C233.015 113.865 234.614 115.096 236.486 115.846L236.487 116.58L236.488 116.952C231.921 115.297 228.886 111.17 228.876 106.46ZM236.909 121.594L254.46 121.557L256.83 121.552L259.435 121.546C259.974 121.545 260.425 121.985 260.426 122.533C260.427 122.769 260.349 122.955 260.261 123.082L236.09 123.133C236.001 123.006 235.923 122.82 235.922 122.585C235.921 122.037 236.361 121.595 236.909 121.594ZM261.375 126.449L234.98 126.505C234.451 126.506 234.02 126.076 234.019 125.547C234.017 125.018 234.447 124.586 234.976 124.585L261.371 124.529C261.899 124.528 262.331 124.958 262.332 125.487C262.334 126.016 261.904 126.448 261.375 126.449Z" fill="#4AA366"/>
</g>
<g clip-path="url(#clip14_406_1329)">
<path d="M177.691 117.674L172.559 117.685L174.612 102.265C174.622 102.226 174.642 102.176 174.642 102.128L175.885 92.8501C175.953 92.3603 175.805 91.8611 175.471 91.4897C175.147 91.1182 174.677 90.9037 174.177 90.9048L163.492 90.9273L155.246 90.9446L146.637 90.9628C146.137 90.9638 145.668 91.1803 145.345 91.5531C145.023 91.926 144.877 92.4258 144.937 92.9153L148.378 117.735L143.236 117.746C142.423 117.748 141.768 118.406 141.77 119.218L141.774 121.197C141.778 122.95 143.211 124.377 144.964 124.373L145.816 124.371L145.82 126.369C145.822 127.358 146.627 128.16 147.616 128.158L173.345 128.104C174.334 128.101 175.135 127.297 175.133 126.308L175.129 124.31L175.981 124.308C177.734 124.304 179.161 122.871 179.157 121.118L179.153 119.14C179.161 118.327 178.494 117.672 177.691 117.674ZM146.396 92.7164C146.386 92.6185 146.425 92.5498 146.454 92.5204C146.483 92.4909 146.542 92.432 146.64 92.4318L155.249 92.4137L163.495 92.3963L174.19 92.3738C174.288 92.3736 174.347 92.4224 174.376 92.4616C174.406 92.4909 174.445 92.5594 174.435 92.6573L174.079 95.3024L146.754 95.36L146.396 92.7164ZM146.963 96.8188L173.876 96.7621L173.635 98.5451C173.616 98.5941 173.606 98.6431 173.596 98.6921L171.06 117.678L155.782 117.71L149.857 117.723L146.963 96.8188ZM173.664 126.311C173.664 126.487 173.518 126.634 173.342 126.634L147.613 126.689C147.437 126.689 147.29 126.542 147.289 126.366L147.285 124.368L173.66 124.313L173.664 126.311ZM177.698 121.121C177.7 122.071 176.928 122.837 175.988 122.839L144.971 122.904C144.021 122.906 143.255 122.134 143.253 121.194L143.249 119.215L158.469 119.183L177.694 119.143L177.698 121.121V121.121Z" fill="#4AA366"/>
<path d="M152.928 88.1678C153.114 88.1674 153.3 88.0985 153.447 87.9513C153.73 87.6667 153.729 87.1966 153.445 86.9131C153.121 86.5906 153.12 86.052 153.442 85.7281L157.684 81.4686C158.583 80.5657 158.58 79.1064 157.677 78.2073C157.392 77.9239 156.922 77.9249 156.639 78.2095C156.355 78.4941 156.356 78.9642 156.641 79.2476C156.965 79.5701 156.966 80.1088 156.644 80.4327L152.402 84.6921C151.503 85.5951 151.506 87.0543 152.409 87.9535C152.556 88.1001 152.742 88.1682 152.928 88.1678Z" fill="#4AA366"/>
<path d="M162.235 79.824C162.235 80.0492 162.147 80.2551 161.991 80.4121L157.749 84.6814C156.85 85.5843 156.853 87.0436 157.756 87.9427C157.904 88.0893 158.09 88.1575 158.276 88.1571C158.462 88.1567 158.648 88.0878 158.794 87.9405C159.078 87.6559 159.077 87.1858 158.792 86.9024C158.468 86.5799 158.467 86.0412 158.79 85.7173L163.031 81.4579C163.93 80.555 163.927 79.0957 163.024 78.1965C162.74 77.9131 162.27 77.9141 161.986 78.1987C161.703 78.4834 161.704 78.9535 161.988 79.2369C162.146 79.3932 162.234 79.6085 162.235 79.824Z" fill="#4AA366"/>
<path d="M167.582 79.8128C167.582 80.038 167.495 80.2439 167.338 80.4009L163.097 84.6604C162.198 85.5633 162.201 87.0226 163.104 87.9217C163.251 88.0683 163.437 88.1365 163.623 88.1361C163.809 88.1357 163.995 88.0668 164.142 87.9195C164.425 87.6349 164.424 87.1648 164.14 86.8814C163.816 86.5589 163.815 86.0202 164.137 85.6963L168.379 81.4369C169.278 80.534 169.275 79.0747 168.372 78.1755C168.087 77.8921 167.617 77.8931 167.334 78.1777C167.05 78.4624 167.051 78.9325 167.336 79.2159C167.493 79.382 167.582 79.5973 167.582 79.8128Z" fill="#4AA366"/>
<path d="M155.54 114.488C155.561 114.88 155.884 115.183 156.276 115.182C156.286 115.182 156.305 115.182 156.315 115.182C156.717 115.162 157.029 114.818 157.009 114.407L156.285 100.991C156.265 100.589 155.921 100.277 155.51 100.297C155.109 100.318 154.796 100.661 154.816 101.072L155.54 114.488Z" fill="#4AA366"/>
<path d="M164.601 115.165C164.611 115.165 164.63 115.165 164.64 115.165C165.032 115.164 165.354 114.86 165.373 114.468L166.04 101.049C166.059 100.647 165.745 100.295 165.343 100.277C164.942 100.258 164.59 100.572 164.571 100.974L163.904 114.393C163.885 114.804 164.199 115.146 164.601 115.165Z" fill="#4AA366"/>
</g>
<g clip-path="url(#clip15_406_1329)">
<path d="M344.019 92.5747L343.088 92.5766L343.083 89.7756C343.081 89.0019 342.746 88.2681 342.167 87.7502C341.795 87.418 341.334 87.2035 340.854 87.1164L340.853 86.6267C340.851 85.853 340.517 85.1191 339.938 84.6013C339.624 84.3277 339.251 84.1326 338.859 84.0257L338.858 83.5066C338.856 82.7329 338.522 81.9991 337.943 81.4812C337.452 81.0514 336.835 80.8176 336.188 80.8092C334.95 78.7551 333.332 77.6224 331.579 77.6261C329.502 77.6305 327.615 79.2406 326.378 82.0639L324.87 82.2531C324.478 82.3029 324.116 82.4408 323.793 82.6373L321.884 78.43C321.579 77.7647 320.795 77.4725 320.13 77.7677L318.105 78.6926C317.782 78.8402 317.537 79.1051 317.411 79.4286C317.284 79.7521 317.295 80.1242 317.442 80.4373L320.699 87.6093C320.592 87.9034 320.524 88.2267 320.525 88.5597L320.527 89.6076C319.244 89.8356 318.297 90.9541 318.3 92.2665L318.3 92.619L317.38 92.621C316.43 92.623 315.667 93.3983 315.669 94.3385L315.674 96.6107C315.676 97.5607 316.452 98.323 317.392 98.321L317.881 98.3199L321.496 126.323C321.605 127.155 322.321 127.79 323.164 127.788L338.383 127.756C339.225 127.754 339.939 127.126 340.045 126.284L342.308 108.102C342.318 108.082 342.318 108.053 342.318 108.033L343.531 98.2855L344.021 98.2845C344.971 98.2825 345.733 97.5072 345.731 96.567L345.727 94.2948C345.734 93.3448 344.959 92.5727 344.019 92.5747ZM331.582 79.0952C332.639 79.0929 333.669 79.7665 334.543 81.0085L328.12 81.8349C329.067 80.0994 330.318 79.0978 331.582 79.0952ZM323.984 84.9385C323.983 84.3215 324.442 83.7917 325.059 83.712L335.986 82.3081C336.338 82.2583 336.681 82.3654 336.956 82.5998C337.221 82.8343 337.378 83.167 337.379 83.5196L337.38 84.019L323.986 85.7416L323.984 84.9385ZM337.99 85.4281C338.343 85.3784 338.686 85.4854 338.961 85.7198C339.226 85.9543 339.383 86.287 339.384 86.6396L339.385 87.188L338.112 87.3474C338.053 87.3377 337.994 87.3379 337.926 87.3478L322.005 89.4185L322.004 88.5566C322.002 87.9396 322.462 87.4098 323.078 87.3301L337.99 85.4281ZM318.842 79.9643L320.603 79.1575L322.738 83.854C322.592 84.1873 322.514 84.5498 322.515 84.9318L322.517 85.9504C322.233 86.0293 321.969 86.1572 321.725 86.3144L318.842 79.9643ZM319.778 92.2829C319.777 91.6659 320.236 91.1361 320.853 91.0564L335.148 89.1949C335.207 89.2046 335.256 89.2045 335.315 89.1945L340.23 88.5672C340.582 88.5175 340.925 88.6245 341.2 88.8589C341.465 89.0934 341.623 89.4261 341.623 89.7787L341.629 92.5797L324.852 92.615L319.789 92.6257L319.788 92.2829L319.778 92.2829ZM319.36 98.3364L342.062 98.2886L341.494 102.824C341.484 102.854 341.484 102.873 341.484 102.903L341.446 103.226L335.227 103.239C335.197 103.239 335.178 103.239 335.149 103.239C333.932 102.262 332.393 101.668 330.718 101.672C329.034 101.675 327.498 102.276 326.285 103.268C326.246 103.258 326.207 103.258 326.168 103.258L319.998 103.271L319.36 98.3364ZM336.296 108.702C336.303 111.767 333.81 114.27 330.745 114.276C327.679 114.283 325.177 111.791 325.17 108.725C325.164 105.66 327.656 103.157 330.722 103.151C333.787 103.144 336.29 105.636 336.296 108.702ZM338.585 126.101C338.576 126.208 338.478 126.287 338.38 126.287L323.161 126.319C323.053 126.319 322.964 126.241 322.954 126.134L322.357 121.493L339.173 121.457L338.585 126.101ZM339.356 119.997L322.168 120.034L320.197 104.75L324.947 104.74C324.165 105.877 323.708 107.249 323.711 108.728C323.719 112.607 326.879 115.754 330.758 115.745C334.636 115.737 337.783 112.577 337.775 108.699C337.772 107.22 337.309 105.84 336.523 104.715L341.273 104.705L339.356 119.997ZM344.272 96.5602C344.272 96.6973 344.165 96.8053 344.028 96.8056L317.389 96.8617C317.252 96.862 317.144 96.7545 317.143 96.6174L317.138 94.3452C317.138 94.2081 317.246 94.1001 317.383 94.0999L330.33 94.0726L344.022 94.0437C344.159 94.0435 344.267 94.151 344.267 94.2881L344.272 96.5602Z" fill="#4AA366"/>
<path d="M331.04 105.422C330.169 105.561 329.308 106.023 328.604 106.729C327.079 108.261 326.81 110.396 327.997 111.579C328.478 112.058 329.145 112.311 329.879 112.309C330.055 112.309 330.232 112.299 330.418 112.269C331.289 112.13 332.15 111.658 332.854 110.961C334.378 109.43 334.648 107.295 333.46 106.112C332.872 105.516 331.99 105.273 331.04 105.422ZM329.654 107.765C330.133 107.285 330.72 106.96 331.278 106.871C331.386 106.851 331.523 106.841 331.68 106.85L328.738 109.804C328.707 109.178 329.029 108.394 329.654 107.765ZM331.813 109.925C331.334 110.406 330.748 110.731 330.189 110.82C330.082 110.84 329.945 110.85 329.788 110.84L332.73 107.886C332.76 108.503 332.439 109.297 331.813 109.925Z" fill="#4AA366"/>
</g>
</g>
<g opacity="0.2">
<g clip-path="url(#clip16_406_1329)">
<path d="M49.1424 199.196L47.0367 199.2C49.0887 196.953 49.7868 193.602 48.8981 190.167C48.7402 189.57 48.2691 189.1 47.6713 188.945C47.5047 188.906 47.348 188.867 47.1814 188.828L47.1797 188.016L47.1748 185.694L47.1622 179.74C47.1601 178.711 46.316 177.871 45.2877 177.873L30.4011 177.905L19.8923 177.927L12.1259 177.943C11.0975 177.945 10.257 178.789 10.2592 179.818L10.2611 180.709L6.50024 180.717C3.12141 180.743 0.384926 183.491 0.392043 186.87L0.397344 189.387C0.404461 192.766 3.1525 195.503 6.53136 195.496L10.2922 195.488L10.293 195.87C10.2955 197.074 10.6212 198.249 11.2208 199.276L8.37079 199.282C7.58728 199.284 6.95203 199.922 6.95368 200.705L6.95754 202.536C6.96102 204.192 8.31541 205.54 9.97057 205.537L40.5076 205.473L43.3674 205.466L47.5592 205.458C49.2143 205.454 50.563 204.1 50.5595 202.445L50.5557 200.613C50.5638 199.83 49.9259 199.194 49.1424 199.196ZM10.2831 191.178L6.52229 191.186C5.52332 191.188 4.70872 190.377 4.70662 189.378L4.70132 186.861C4.69921 185.862 5.51039 185.048 6.50935 185.046L10.2702 185.038L10.2831 191.178ZM10.2671 183.569L6.50626 183.577C4.69441 183.58 3.22843 185.053 3.23225 186.864L3.23755 189.381C3.24136 191.193 4.71353 192.659 6.52538 192.655L10.2862 192.647L10.2891 194.019L6.52827 194.027C3.96229 194.032 1.87182 191.95 1.86641 189.384L1.86111 186.867C1.85571 184.301 3.93739 182.211 6.50337 182.205L10.2642 182.197L10.2671 183.569ZM47.3217 190.376C47.4001 190.395 47.4688 190.463 47.4886 190.542C48.2884 193.645 47.6677 196.516 45.7717 198.42C45.5176 198.675 45.2438 198.91 44.9505 199.127C44.9114 199.156 44.882 199.185 44.8527 199.215L39.7208 199.226L41.0402 197.901C41.5791 198.027 42.1277 198.094 42.6761 198.093C42.9308 198.093 43.1854 198.082 43.44 198.052C43.8414 198.003 44.1345 197.64 44.0846 197.238C44.0348 196.837 43.6816 196.544 43.2704 196.593C42.9473 196.633 42.6241 196.634 42.3106 196.615L43.0925 195.83C43.6314 195.956 44.18 196.024 44.7285 196.022C44.9831 196.022 45.2377 196.011 45.4923 195.982C45.8938 195.932 46.1868 195.569 46.137 195.167C46.0872 194.766 45.7242 194.473 45.3227 194.523C44.9996 194.562 44.6764 194.563 44.363 194.544L45.3599 193.543C45.6433 193.259 45.6423 192.788 45.3577 192.505C45.073 192.222 44.6029 192.223 44.3195 192.507L43.3227 193.508C43.3024 193.185 43.3115 192.872 43.3402 192.548C43.3883 192.147 43.0938 191.785 42.6921 191.737C42.2905 191.699 41.9287 191.983 41.8806 192.385C41.7942 193.198 41.8448 194.001 42.0424 194.784L41.2605 195.569C41.2402 195.246 41.2494 194.933 41.2781 194.61C41.3262 194.208 41.0316 193.846 40.63 193.798C40.2283 193.76 39.8666 194.044 39.8184 194.446C39.732 195.259 39.7827 196.062 39.9802 196.845L37.6347 199.22L37.5563 199.22C37.2393 197.497 37.3827 195.852 37.938 194.44C37.9478 194.43 37.9576 194.421 37.9673 194.411C38.1139 194.264 38.1821 194.077 38.1817 193.891C38.5035 193.234 38.9332 192.636 39.4512 192.116C41.3472 190.222 44.2154 189.589 47.3217 190.376ZM11.7283 179.834C11.7278 179.609 11.9037 179.432 12.129 179.432L19.8955 179.415L30.4238 179.393L45.3104 179.362C45.5357 179.361 45.7123 179.537 45.7128 179.762L45.7253 185.717L45.7302 188.038L45.7315 188.626C42.8809 188.387 40.2385 189.264 38.4109 191.1C37.932 191.58 37.512 192.12 37.1704 192.699C34.875 190.95 32.0246 190.77 30.4315 192.36C29.5324 193.263 29.1728 194.566 29.4109 196.025C29.5896 197.151 30.1208 198.267 30.9063 199.244L13.0229 199.282C12.2178 198.334 11.7647 197.12 11.7621 195.876L11.7283 179.834V179.834ZM35.945 196.805L32.088 192.964C33.2719 192.413 35.065 192.83 36.5171 194.051C36.1957 194.904 36.0018 195.835 35.945 196.805ZM36.0677 199.224L32.9532 199.23C32.9336 199.211 32.9238 199.201 32.9042 199.181C32.7766 199.074 32.649 198.957 32.5313 198.839C31.0297 197.344 30.4574 195.318 31.052 194.004L36.0279 198.959C36.0379 199.047 36.0577 199.135 36.0677 199.224ZM49.1003 202.448C49.1021 203.3 48.4179 203.987 47.5659 203.989L43.3741 203.997L40.5143 204.003L9.97727 204.068C9.12521 204.07 8.4382 203.385 8.4364 202.533L8.43265 200.751L49.0965 200.665L49.1003 202.448Z" fill="#4AA366"/>
<path d="M23.0813 176.079C23.2674 176.078 23.4533 176.009 23.5999 175.862C23.8833 175.578 23.8823 175.107 23.5977 174.824C23.3131 174.541 23.3121 174.08 23.5956 173.805L27.5342 169.85C28.3844 168.996 28.3815 167.606 27.5276 166.746C27.243 166.462 26.7729 166.463 26.4895 166.748C26.2061 167.032 26.207 167.503 26.4917 167.786C26.6291 167.923 26.7078 168.099 26.7082 168.295C26.7086 168.491 26.6306 168.667 26.4938 168.804L22.5552 172.76C21.7049 173.614 21.7079 175.004 22.5618 175.864C22.6992 176.011 22.8854 176.079 23.0813 176.079Z" fill="#4AA366"/>
<path d="M31.654 168.294C31.6545 168.49 31.5765 168.667 31.4396 168.804L27.5011 172.759C27.0906 173.171 26.8567 173.72 26.8579 174.308C26.8592 174.896 27.0856 175.444 27.5076 175.854C27.6548 176.001 27.841 176.069 28.0271 176.068C28.2132 176.068 28.3991 175.999 28.5457 175.852C28.8291 175.567 28.8282 175.097 28.5435 174.814C28.4061 174.677 28.3274 174.501 28.327 174.305C28.3266 174.109 28.4046 173.933 28.5414 173.795L32.48 169.84C33.3302 168.986 33.3273 167.595 32.4734 166.735C32.1888 166.452 31.7187 166.453 31.4353 166.738C31.1519 167.022 31.1529 167.492 31.4375 167.776C31.5749 167.922 31.6536 168.098 31.654 168.294Z" fill="#4AA366"/>
<path d="M36.3954 168.793L32.4568 172.748C31.6066 173.602 31.6095 174.993 32.4634 175.853C32.6106 176 32.7968 176.068 32.9829 176.067C33.169 176.067 33.3549 175.998 33.5015 175.851C33.7849 175.566 33.7839 175.096 33.4993 174.813C33.3619 174.676 33.2832 174.5 33.2828 174.304C33.2824 174.108 33.3604 173.932 33.4972 173.794L37.4358 169.839C38.286 168.985 38.2831 167.594 37.4292 166.734C37.1446 166.451 36.6745 166.452 36.3911 166.737C36.1077 167.021 36.1087 167.491 36.3933 167.775C36.6779 168.048 36.6788 168.509 36.3954 168.793Z" fill="#4AA366"/>
</g>
<g clip-path="url(#clip17_406_1329)">
<path d="M218.991 198.183L217.512 198.186L218.235 192.347C218.292 191.857 218.144 191.368 217.82 190.997C217.82 190.977 217.83 190.957 217.83 190.938L218.581 184.874C219.247 184.765 219.765 184.186 219.763 183.49L219.758 181.032C219.757 180.258 219.128 179.633 218.355 179.635L217.385 179.637L217.377 175.886C217.376 175.445 217.18 175.024 216.836 174.751C216.493 174.467 216.042 174.361 215.611 174.45L205.596 176.478L200.935 176.488C200.122 176.49 199.467 177.157 199.469 177.96L199.472 179.674L198.503 179.676C197.729 179.678 197.103 180.306 197.105 181.08L197.11 183.538C197.112 184.233 197.632 184.81 198.298 184.917L199.075 190.977C199.075 190.997 199.085 191.016 199.085 191.036C198.762 191.409 198.607 191.899 198.676 192.388L199.423 198.224L196.652 198.23L191.862 198.24L192.585 192.401C192.642 191.911 192.494 191.422 192.17 191.051C192.17 191.031 192.18 191.011 192.18 190.982L192.931 184.918C193.597 184.809 194.115 184.23 194.113 183.535L194.108 181.076C194.107 180.303 193.478 179.677 192.705 179.679L191.735 179.681L191.727 175.93C191.726 175.489 191.53 175.068 191.186 174.795C190.843 174.512 190.392 174.405 189.961 174.494L179.937 176.523L175.275 176.533C174.462 176.534 173.797 177.202 173.799 178.005L173.803 179.719L172.833 179.721C172.059 179.722 171.434 180.35 171.436 181.124L171.441 183.582C171.442 184.278 171.962 184.855 172.629 184.961L173.415 191.09C173.093 191.463 172.937 191.953 173.007 192.443L173.754 198.278L172.275 198.281C171.335 198.283 170.562 199.059 170.564 199.999L170.569 201.938C170.571 202.878 171.346 203.65 172.286 203.648L173.265 203.646L173.271 206.242C173.273 207.143 173.999 207.866 174.9 207.864L186.163 207.84L190.737 207.831C191.638 207.829 192.361 207.102 192.359 206.201L192.354 203.606L198.925 203.592L198.931 206.187C198.933 207.089 199.659 207.812 200.56 207.81L216.396 207.776C217.297 207.775 218.021 207.048 218.019 206.147L218.013 203.552L218.993 203.55C219.933 203.548 220.705 202.773 220.703 201.832L220.699 199.893C220.707 198.953 219.931 198.181 218.991 198.183ZM200.938 177.948L205.668 177.938C205.717 177.938 205.766 177.937 205.815 177.928L215.898 175.889L215.906 179.64L200.941 179.671L200.938 177.948ZM198.569 183.457L198.565 181.145L218.279 181.104L218.284 183.415L215.542 183.421L212.457 183.427L198.569 183.457ZM216.409 190.422L200.484 190.455L199.777 184.923L212.48 184.896L215.565 184.89L217.102 184.887L216.409 190.422ZM216.785 192.164L216.033 198.189L213.82 198.194L214.248 191.895L216.539 191.891C216.637 191.89 216.696 191.939 216.726 191.969C216.745 192.008 216.794 192.066 216.785 192.164ZM212.769 191.898L212.341 198.197L209.197 198.203L209.184 191.906L212.769 191.898ZM207.715 191.909L207.728 198.207L204.584 198.213L204.131 191.917L207.715 191.909ZM200.125 192.199C200.115 192.101 200.154 192.043 200.184 192.003C200.213 191.964 200.272 191.925 200.37 191.925L202.661 191.92L203.115 198.216L200.902 198.221L200.125 192.199ZM175.278 178.002L180.008 177.992C180.057 177.992 180.106 177.991 180.155 177.982L190.239 175.943L190.246 179.694L175.272 179.725L175.278 178.002ZM173.262 183.51L172.91 183.511L172.905 181.199L192.62 181.158L192.625 183.469L173.262 183.51ZM190.749 190.476L174.824 190.509L174.117 184.977L191.443 184.941L190.749 190.476ZM191.115 192.218L190.364 198.243L188.15 198.248L188.578 191.949L190.87 191.945C190.968 191.944 191.027 191.993 191.056 192.023C191.085 192.062 191.135 192.12 191.115 192.218ZM187.109 191.953L186.681 198.251L183.538 198.257L183.524 191.96L187.109 191.953ZM182.055 191.963L182.069 198.261L178.925 198.267L178.471 191.971L182.055 191.963ZM177.446 198.27L175.232 198.275L174.456 192.253C174.446 192.155 174.485 192.097 174.514 192.057C174.544 192.028 174.602 191.979 174.7 191.979L176.992 191.974L177.446 198.27ZM190.9 206.204C190.9 206.293 190.832 206.361 190.743 206.361L182.36 206.379L174.897 206.395C174.809 206.395 174.74 206.327 174.74 206.238L174.735 203.643L190.884 203.609L190.89 206.204L190.9 206.204ZM216.403 206.307L200.557 206.341C200.469 206.341 200.4 206.273 200.4 206.184L200.394 203.589L216.544 203.555L216.55 206.15C216.56 206.238 216.481 206.307 216.403 206.307ZM219.244 201.845C219.244 201.982 219.137 202.09 218.999 202.091L172.283 202.189C172.146 202.189 172.038 202.082 172.038 201.945L172.034 200.005C172.033 199.868 172.141 199.76 172.278 199.76L196.645 199.709L199.436 199.703L219.004 199.662C219.141 199.661 219.249 199.769 219.249 199.906L219.254 201.845L219.244 201.845Z" fill="#4AA366"/>
<path d="M176.404 173.083C176.59 173.082 176.776 173.013 176.922 172.866C177.206 172.581 177.205 172.111 176.92 171.828C176.783 171.691 176.704 171.515 176.704 171.319C176.703 171.123 176.781 170.947 176.918 170.809L180.857 166.854C181.707 166 181.704 164.61 180.85 163.749C180.566 163.466 180.095 163.467 179.812 163.752C179.529 164.036 179.53 164.506 179.814 164.79C179.952 164.927 180.03 165.103 180.031 165.299C180.031 165.495 179.953 165.671 179.816 165.808L175.878 169.773C175.467 170.186 175.233 170.735 175.235 171.322C175.236 171.91 175.462 172.458 175.884 172.868C176.022 173.015 176.218 173.083 176.404 173.083Z" fill="#4AA366"/>
<path d="M184.977 165.298C184.977 165.494 184.899 165.67 184.762 165.807L180.824 169.763C179.974 170.616 179.976 172.007 180.83 172.867C180.978 173.014 181.164 173.082 181.35 173.082C181.536 173.081 181.722 173.012 181.868 172.865C182.152 172.58 182.151 172.11 181.866 171.827C181.582 171.544 181.581 171.083 181.864 170.808L185.803 166.853C186.653 165.999 186.65 164.609 185.796 163.749C185.512 163.465 185.041 163.466 184.758 163.751C184.475 164.035 184.476 164.505 184.76 164.789C184.898 164.926 184.976 165.102 184.977 165.298Z" fill="#4AA366"/>
<path d="M189.728 165.797L185.789 169.752C184.939 170.606 184.942 171.997 185.796 172.857C185.943 173.004 186.129 173.072 186.315 173.071C186.501 173.071 186.687 173.002 186.834 172.855C187.117 172.57 187.116 172.1 186.832 171.817C186.694 171.68 186.615 171.504 186.615 171.308C186.615 171.112 186.693 170.936 186.829 170.798L190.768 166.833C191.618 165.979 191.615 164.589 190.762 163.729C190.477 163.445 190.007 163.446 189.723 163.731C189.44 164.015 189.441 164.485 189.726 164.769C190 165.052 190.001 165.513 189.728 165.797Z" fill="#4AA366"/>
<path d="M200.898 173.031C201.084 173.03 201.27 172.962 201.417 172.814C201.7 172.53 201.699 172.06 201.415 171.776C201.13 171.493 201.129 171.032 201.412 170.758L205.351 166.802C206.201 165.949 206.198 164.558 205.345 163.698C205.06 163.414 204.59 163.415 204.306 163.7C204.023 163.985 204.024 164.455 204.309 164.738C204.446 164.875 204.525 165.051 204.525 165.247C204.526 165.443 204.448 165.619 204.311 165.757L200.372 169.722C199.522 170.576 199.525 171.966 200.379 172.826C200.526 172.963 200.712 173.031 200.898 173.031Z" fill="#4AA366"/>
<path d="M209.266 165.756L205.328 169.711C204.477 170.565 204.48 171.956 205.334 172.816C205.481 172.963 205.668 173.031 205.854 173.03C206.04 173.03 206.226 172.961 206.372 172.814C206.656 172.529 206.655 172.059 206.37 171.776C206.233 171.639 206.154 171.463 206.154 171.267C206.153 171.071 206.231 170.895 206.368 170.757L210.307 166.802C211.157 165.948 211.154 164.557 210.3 163.697C210.015 163.414 209.545 163.415 209.262 163.699C208.979 163.984 208.98 164.454 209.264 164.738C209.549 165.011 209.55 165.472 209.266 165.756Z" fill="#4AA366"/>
<path d="M214.436 165.236C214.437 165.432 214.359 165.608 214.222 165.745L210.283 169.701C209.433 170.554 209.436 171.945 210.29 172.805C210.437 172.952 210.623 173.02 210.81 173.02C210.996 173.019 211.182 172.95 211.328 172.803C211.612 172.518 211.611 172.048 211.326 171.765C211.189 171.628 211.11 171.452 211.109 171.256C211.109 171.06 211.187 170.884 211.324 170.746L215.262 166.791C215.673 166.379 215.907 165.83 215.906 165.242C215.904 164.655 215.678 164.107 215.256 163.696C214.971 163.413 214.501 163.414 214.218 163.698C213.934 163.983 213.935 164.453 214.22 164.737C214.357 164.864 214.436 165.04 214.436 165.236Z" fill="#4AA366"/>
</g>
<path d="M100.895 163.818C100.7 163.836 100.515 163.912 100.362 164.035C100.21 164.159 100.097 164.325 100.037 164.512L98.2823 169.871L97.001 169.874C95.7573 169.876 94.5033 170.971 94.5065 172.493C94.5081 173.255 94.8361 173.969 95.3543 174.382C95.8724 174.794 96.4704 174.915 97.0116 174.914L98.0898 174.911L100.569 202.216C100.705 203.553 101.098 204.838 101.624 205.883C102.15 206.929 102.726 207.842 103.832 208.131C103.913 208.152 103.997 208.162 104.082 208.162C104.082 208.162 107.376 208.155 110.582 208.148C113.787 208.141 117.082 208.135 117.082 208.135C117.166 208.135 117.25 208.124 117.332 208.103C118.436 207.809 119.008 206.894 119.53 205.846C120.051 204.798 120.439 203.512 120.569 202.174L122.933 174.859L124.012 174.857C124.593 174.856 125.217 174.68 125.713 174.239C126.21 173.798 126.508 173.093 126.506 172.332C126.505 171.57 126.204 170.866 125.705 170.428C125.207 169.989 124.583 169.816 124.001 169.817L122.72 169.82L120.943 164.468C120.876 164.266 120.748 164.091 120.577 163.967C120.405 163.843 120.199 163.776 119.988 163.777L100.988 163.817C100.957 163.816 100.926 163.816 100.895 163.818V163.818ZM101.711 165.832L103.993 165.827L104.001 169.859L100.392 169.867L101.711 165.832V165.832ZM105.993 165.823L107.992 165.819L108.001 169.851L106.001 169.855L105.993 165.823V165.823ZM109.992 165.814L119.274 165.795L120.61 169.824L110.001 169.846L109.992 165.814V165.814ZM97.0053 171.89L124.005 171.833C124.195 171.832 124.321 171.89 124.38 171.942C124.44 171.995 124.506 172.042 124.506 172.336C124.507 172.629 124.441 172.677 124.382 172.73C124.323 172.782 124.197 172.84 124.007 172.841L97.0074 172.898C96.7775 172.898 96.6254 172.836 96.5853 172.804C96.5452 172.772 96.5071 172.783 96.5065 172.489C96.5053 171.902 96.7068 171.89 97.0053 171.89ZM100.105 174.907L120.918 174.863L119.865 186.961L115.381 186.971C114.285 185.458 112.523 184.472 110.532 184.477C108.541 184.481 106.783 185.474 105.693 186.991L101.209 187.001L100.105 174.907V174.907ZM110.536 186.493C112.757 186.488 114.54 188.262 114.544 190.5C114.549 192.739 112.774 194.536 110.553 194.541C108.332 194.545 106.549 192.756 106.545 190.517C106.54 188.279 108.315 186.497 110.536 186.493ZM101.385 189.016L104.744 189.009C104.619 189.497 104.543 189.995 104.545 190.521C104.546 191.041 104.611 191.552 104.735 192.033L101.657 192.039L101.385 189.016V189.016ZM116.338 188.985L119.698 188.978L119.438 192.002L116.345 192.009C116.467 191.526 116.546 191.016 116.544 190.496C116.543 189.971 116.465 189.471 116.338 188.985ZM101.849 194.055L105.693 194.047C106.787 195.57 108.558 196.561 110.557 196.557C112.556 196.552 114.323 195.554 115.411 194.026L119.255 194.018L118.569 201.989C118.465 203.06 118.145 204.151 117.747 204.952C117.369 205.711 116.878 206.087 116.859 206.119C116.648 206.12 113.675 206.125 110.577 206.132C107.48 206.139 104.507 206.145 104.296 206.146C104.276 206.114 103.784 205.739 103.403 204.982C103.001 204.182 102.677 203.093 102.569 202.023L101.849 194.055Z" fill="#4AA366"/>
<g clip-path="url(#clip18_406_1329)">
<path d="M299.036 173.794L298.017 173.797L298.013 171.965C298.011 171.074 297.285 170.351 296.394 170.352L275.357 170.397C274.465 170.399 273.742 171.125 273.744 172.016L273.748 173.848L272.729 173.85C271.838 173.852 271.115 174.578 271.117 175.469L271.124 178.73C271.126 179.592 271.813 180.296 272.665 180.333L273.67 188.137C273.357 188.226 273.073 188.403 272.849 188.648C272.526 189.021 272.371 189.511 272.44 190L274.153 203.316C274.262 204.159 274.969 204.794 275.811 204.811L276.05 206.691C276.15 207.494 276.807 208.11 277.601 208.177L277.603 209.019C277.604 209.959 278.38 210.731 279.32 210.729L292.581 210.701C293.521 210.699 294.293 209.924 294.291 208.984L294.289 208.142C295.083 208.071 295.737 207.453 295.834 206.65L296.065 204.769C296.907 204.747 297.611 204.109 297.717 203.267L299.19 191.462C299.2 191.423 299.2 191.384 299.19 191.345L299.363 189.944C299.421 189.454 299.273 188.965 298.949 188.593C298.733 188.349 298.439 188.173 298.125 188.086L299.098 180.278C299.95 180.237 300.634 179.53 300.632 178.668L300.626 175.407C300.653 174.516 299.927 173.792 299.036 173.794ZM275.213 172.013C275.213 171.935 275.281 171.866 275.36 171.866L296.407 171.822C296.485 171.821 296.554 171.89 296.554 171.968L296.558 173.8L275.217 173.845L275.213 172.013ZM292.832 208.977C292.832 209.114 292.725 209.222 292.588 209.222L279.327 209.25C279.19 209.251 279.082 209.143 279.081 209.006L279.08 208.164L283.536 208.154L287.287 208.147L292.83 208.135L292.832 208.977V208.977ZM294.394 206.457C294.374 206.574 294.276 206.673 294.149 206.673L287.284 206.687L283.533 206.695L277.764 206.707C277.637 206.708 277.539 206.62 277.519 206.492L277.3 204.798L294.605 204.762L294.394 206.457ZM296.032 203.29L275.857 203.332C275.73 203.333 275.632 203.245 275.612 203.118L273.899 189.801C273.889 189.704 273.928 189.635 273.957 189.605C273.987 189.576 274.045 189.527 274.143 189.527L279.922 189.515C279.688 190.171 279.562 190.886 279.564 191.621C279.571 195.127 282.427 197.971 285.933 197.964C289.44 197.956 292.284 195.1 292.276 191.594C292.275 190.86 292.146 190.145 291.909 189.489L297.688 189.477C297.786 189.477 297.845 189.526 297.874 189.555C297.903 189.584 297.943 189.653 297.933 189.751L297.172 195.874C297.172 195.903 297.163 195.932 297.163 195.962L296.277 203.074C296.257 203.201 296.16 203.29 296.032 203.29ZM293.271 180.28L297.639 180.271L296.676 188.01L291.162 188.022C290.013 186.349 288.081 185.247 285.907 185.251C283.732 185.256 281.805 186.367 280.663 188.044L275.149 188.056L274.153 180.321L293.271 180.28ZM290.807 191.597C290.813 194.291 288.624 196.489 285.93 196.495C283.237 196.5 281.039 194.311 281.033 191.618C281.027 188.925 283.216 186.726 285.91 186.721C288.603 186.715 290.801 188.904 290.807 191.597ZM299.193 178.662C299.193 178.74 299.125 178.809 299.046 178.809L297.401 178.812L272.74 178.864C272.662 178.864 272.593 178.796 272.593 178.718L272.586 175.456C272.586 175.378 272.654 175.309 272.733 175.309L299.039 175.254C299.117 175.253 299.186 175.322 299.186 175.4L299.193 178.662Z" fill="#4AA366"/>
<path d="M279.674 169.271C279.86 169.271 280.046 169.202 280.192 169.055C280.476 168.77 280.475 168.3 280.19 168.016C280.082 167.909 280.023 167.762 280.023 167.615C280.022 167.468 280.081 167.321 280.188 167.213L283.707 163.67C284.498 162.875 284.496 161.583 283.701 160.781C283.416 160.498 282.946 160.499 282.662 160.783C282.379 161.068 282.38 161.538 282.665 161.822C282.773 161.929 282.832 162.076 282.832 162.223C282.832 162.37 282.774 162.517 282.666 162.625L279.138 166.168C278.347 166.963 278.349 168.255 279.144 169.057C279.292 169.194 279.478 169.272 279.674 169.271Z" fill="#4AA366"/>
<path d="M287.268 162.213C287.269 162.37 287.21 162.507 287.103 162.615L283.575 166.158C282.783 166.953 282.786 168.246 283.581 169.048C283.728 169.194 283.914 169.262 284.1 169.262C284.286 169.262 284.472 169.193 284.619 169.045C284.902 168.761 284.901 168.291 284.617 168.007C284.509 167.9 284.45 167.753 284.449 167.606C284.449 167.449 284.507 167.312 284.615 167.204L288.143 163.661C288.935 162.866 288.932 161.573 288.137 160.772C287.852 160.489 287.382 160.49 287.099 160.774C286.815 161.059 286.816 161.529 287.101 161.812C287.209 161.92 287.268 162.067 287.268 162.213Z" fill="#4AA366"/>
<path d="M291.705 162.204C291.705 162.361 291.647 162.498 291.539 162.606L288.021 166.149C287.229 166.944 287.232 168.237 288.027 169.038C288.174 169.185 288.361 169.253 288.547 169.253C288.733 169.252 288.919 169.183 289.065 169.036C289.349 168.751 289.348 168.281 289.063 167.998C288.955 167.89 288.896 167.744 288.896 167.597C288.895 167.44 288.954 167.303 289.061 167.195L292.59 163.652C293.381 162.857 293.378 161.564 292.583 160.763C292.299 160.479 291.829 160.48 291.545 160.765C291.262 161.049 291.263 161.52 291.547 161.803C291.646 161.911 291.705 162.057 291.705 162.204Z" fill="#4AA366"/>
<path d="M283.967 189.79C283.332 190.428 282.913 191.213 282.787 192.006C282.652 192.878 282.879 193.681 283.428 194.228C283.889 194.687 284.497 194.911 285.163 194.91C286.064 194.908 287.062 194.485 287.873 193.67C288.509 193.032 288.928 192.248 289.054 191.454C289.189 190.582 288.962 189.78 288.413 189.232C287.313 188.138 285.365 188.387 283.967 189.79ZM284.227 192.395C284.227 192.336 284.237 192.287 284.247 192.238C284.324 191.758 284.607 191.238 285.017 190.826C285.487 190.355 286.083 190.07 286.583 190.039L284.227 192.395ZM287.604 191.222C287.527 191.702 287.244 192.222 286.833 192.634C286.364 193.105 285.777 193.381 285.268 193.421L287.613 191.066C287.613 191.124 287.604 191.173 287.604 191.222Z" fill="#4AA366"/>
<path d="M286.877 199.676L284.987 199.68C284.585 199.68 284.253 200.014 284.254 200.416C284.255 200.817 284.589 201.15 284.99 201.149L286.88 201.145C287.282 201.144 287.614 200.81 287.613 200.409C287.612 199.997 287.289 199.675 286.877 199.676Z" fill="#4AA366"/>
</g>
</g>
<defs>
<clipPath id="clip0_406_1329">
<rect width="50.1444" height="62.6805" fill="white" transform="translate(0 0.643555) rotate(-0.120682)"/>
</clipPath>
<clipPath id="clip1_406_1329">
<rect width="50.1444" height="62.6805" fill="white" transform="translate(85.144 0.464355) rotate(-0.120682)"/>
</clipPath>
<clipPath id="clip2_406_1329">
<rect width="50.1444" height="62.6805" fill="white" transform="translate(170.288 0.284668) rotate(-0.120682)"/>
</clipPath>
<clipPath id="clip3_406_1329">
<rect width="50.1444" height="62.6805" fill="white" transform="translate(255.432 0.105469) rotate(-0.120682)"/>
</clipPath>
<clipPath id="clip4_406_1329">
<rect width="50.1444" height="62.6805" fill="white" transform="translate(0.675537 321.329) rotate(-0.120682)"/>
</clipPath>
<clipPath id="clip5_406_1329">
<rect width="50.1444" height="62.6805" fill="white" transform="translate(85.8196 321.15) rotate(-0.120682)"/>
</clipPath>
<clipPath id="clip6_406_1329">
<rect width="50.1444" height="62.6805" fill="white" transform="translate(170.964 320.97) rotate(-0.120682)"/>
</clipPath>
<clipPath id="clip7_406_1329">
<rect width="50.1444" height="62.6805" fill="white" transform="translate(256.108 320.791) rotate(-0.120682)"/>
</clipPath>
<clipPath id="clip8_406_1329">
<rect width="50.1444" height="62.6805" fill="white" transform="translate(56.5117 243.531) rotate(-0.120682)"/>
</clipPath>
<clipPath id="clip9_406_1329">
<rect width="50.1444" height="62.6805" fill="white" transform="translate(141.656 243.352) rotate(-0.120682)"/>
</clipPath>
<clipPath id="clip10_406_1329">
<rect width="50.1444" height="62.6805" fill="white" transform="translate(226.8 243.172) rotate(-0.120682)"/>
</clipPath>
<clipPath id="clip11_406_1329">
<rect width="50.1444" height="62.6805" fill="white" transform="translate(311.944 242.993) rotate(-0.120682)"/>
</clipPath>
<clipPath id="clip12_406_1329">
<rect width="50.1444" height="62.6805" fill="white" transform="translate(50.1633 78.2188) rotate(-0.120682)"/>
</clipPath>
<clipPath id="clip13_406_1329">
<rect width="50.1444" height="62.6805" fill="white" transform="translate(220.451 77.8599) rotate(-0.120682)"/>
</clipPath>
<clipPath id="clip14_406_1329">
<rect width="50.1444" height="62.6805" fill="white" transform="translate(135.307 78.0396) rotate(-0.120682)"/>
</clipPath>
<clipPath id="clip15_406_1329">
<rect width="50.1444" height="62.6805" fill="white" transform="translate(305.596 77.6807) rotate(-0.120682)"/>
</clipPath>
<clipPath id="clip16_406_1329">
<rect width="50.1444" height="62.6805" fill="white" transform="translate(0.337646 161.005) rotate(-0.120682)"/>
</clipPath>
<clipPath id="clip17_406_1329">
<rect width="50.1444" height="62.6805" fill="white" transform="translate(170.482 160.646) rotate(-0.120682)"/>
</clipPath>
<clipPath id="clip18_406_1329">
<rect width="50.1444" height="62.6805" fill="white" transform="translate(255.64 167.158) rotate(-13.6031)"/>
</clipPath>
</defs>
</svg>
